# MagicaVoxel @ Ephtracy

# group
o 

# material
mtllib elephant.mtl
usemtl palette

# normals
vn -1 0 0
vn 1 0 0
vn 0 0 1
vn 0 0 -1
vn 0 -1 0
vn 0 1 0

# texcoords
vt 0.958984 0.5
vt 0.978516 0.5
vt 0.994141 0.5

# verts
v -0.6 0.7 0.5
v -0.6 0.7 0.4
v -0.6 1.2 0.5
v -0.6 1.2 0.4
v -0.5 0 0.3
v -0.5 0 0.2
v -0.5 0 0
v -0.5 0 -0.5
v -0.5 0 -0.6
v -0.5 0 -0.8
v -0.5 0.1 0.3
v -0.5 0.1 0.2
v -0.5 0.1 -0.5
v -0.5 0.1 -0.6
v -0.5 0.6 0.5
v -0.5 0.6 0.4
v -0.5 0.7 0.5
v -0.5 0.7 0.4
v -0.5 0.8 0.3
v -0.5 0.8 0
v -0.5 0.8 -0.5
v -0.5 0.8 -0.8
v -0.3 0.5 0
v -0.3 0.5 -0.5
v -0.3 0.6 0.4
v -0.3 0.6 0.3
v -0.3 0.8 0.3
v -0.3 0.8 0
v -0.3 0.8 -0.5
v -0.3 0.8 -0.8
v -0.3 1.1 0.6
v -0.3 1.1 0.5
v -0.3 1.1 0.4
v -0.3 1.1 -0.8
v -0.3 1.2 0.5
v -0.3 1.2 0.4
v -0.3 1.3 0.6
v -0.3 1.3 0.4
v -0.2 0.5 0.9
v -0.2 0.5 0.8
v -0.2 0.5 0.4
v -0.2 0.5 0.3
v -0.2 0.6 0.8
v -0.2 0.6 0.5
v -0.2 0.6 0.4
v -0.2 0.6 0.3
v -0.2 0.7 0.9
v -0.2 0.7 0.8
v -0.2 1 0.7
v -0.2 1 0.6
v -0.2 1.1 0.7
v -0.2 1.1 0.6
v -0.2 1.1 0.5
v -0.2 1.1 0.4
v -0.2 1.1 0.3
v -0.2 1.3 0.9
v -0.2 1.3 0.7
v -0.2 1.3 0.6
v -0.2 1.3 0.4
v -0.2 1.3 0.3
v -0.2 1.4 0.7
v -0.2 1.4 0.4
v -0.1 0.2 1.1
v -0.1 0.2 0.9
v -0.1 0.5 0.9
v -0.1 0.5 -0.8
v -0.1 0.5 -0.9
v -0.1 0.7 0.9
v -0.1 1.1 1.1
v -0.1 1.1 0.9
v -0.1 1.1 0.3
v -0.1 1.1 -0.8
v -0.1 1.1 -0.9
v -0.1 1.2 0.3
v -0.1 1.2 -0.8
v 0.2 0.5 0.9
v 0.2 0.5 0.8
v 0.2 0.6 0.9
v 0.2 0.6 0.8
v 0.3 0 0.3
v 0.3 0 0.2
v 0.3 0 0
v 0.3 0 -0.5
v 0.3 0 -0.6
v 0.3 0 -0.8
v 0.3 0.1 0.3
v 0.3 0.1 0.2
v 0.3 0.1 -0.5
v 0.3 0.1 -0.6
v 0.3 0.5 0.3
v 0.3 0.5 0
v 0.3 0.5 -0.5
v 0.3 0.5 -0.8
v -0.2 0 0.3
v -0.2 0 0.2
v -0.2 0 0
v -0.2 0 -0.5
v -0.2 0 -0.6
v -0.2 0 -0.8
v -0.2 0.1 0.3
v -0.2 0.1 0.2
v -0.2 0.1 -0.5
v -0.2 0.1 -0.6
v -0.2 0.5 0.3
v -0.2 0.5 0
v -0.2 0.5 -0.5
v -0.2 0.5 -0.8
v -0.1 0.5 0.9
v -0.1 0.5 0.8
v -0.1 0.6 0.9
v -0.1 0.6 0.8
v 0.2 0.2 1.1
v 0.2 0.2 0.9
v 0.2 0.5 0.9
v 0.2 0.5 -0.8
v 0.2 0.5 -0.9
v 0.2 0.7 0.9
v 0.2 1.1 1.1
v 0.2 1.1 0.9
v 0.2 1.1 0.3
v 0.2 1.1 -0.8
v 0.2 1.1 -0.9
v 0.2 1.2 0.3
v 0.2 1.2 -0.8
v 0.3 0.5 0.9
v 0.3 0.5 0.8
v 0.3 0.5 0.4
v 0.3 0.5 0.3
v 0.3 0.6 0.8
v 0.3 0.6 0.5
v 0.3 0.6 0.4
v 0.3 0.6 0.3
v 0.3 0.7 0.9
v 0.3 0.7 0.8
v 0.3 1 0.7
v 0.3 1 0.6
v 0.3 1.1 0.7
v 0.3 1.1 0.6
v 0.3 1.1 0.5
v 0.3 1.1 0.4
v 0.3 1.1 0.3
v 0.3 1.3 0.9
v 0.3 1.3 0.7
v 0.3 1.3 0.6
v 0.3 1.3 0.4
v 0.3 1.3 0.3
v 0.3 1.4 0.7
v 0.3 1.4 0.4
v 0.4 0.5 0
v 0.4 0.5 -0.5
v 0.4 0.6 0.4
v 0.4 0.6 0.3
v 0.4 0.8 0.3
v 0.4 0.8 0
v 0.4 0.8 -0.5
v 0.4 0.8 -0.8
v 0.4 1.1 0.6
v 0.4 1.1 0.5
v 0.4 1.1 0.4
v 0.4 1.1 -0.8
v 0.4 1.2 0.5
v 0.4 1.2 0.4
v 0.4 1.3 0.6
v 0.4 1.3 0.4
v 0.6 0 0.3
v 0.6 0 0.2
v 0.6 0 0
v 0.6 0 -0.5
v 0.6 0 -0.6
v 0.6 0 -0.8
v 0.6 0.1 0.3
v 0.6 0.1 0.2
v 0.6 0.1 -0.5
v 0.6 0.1 -0.6
v 0.6 0.6 0.5
v 0.6 0.6 0.4
v 0.6 0.7 0.5
v 0.6 0.7 0.4
v 0.6 0.8 0.3
v 0.6 0.8 0
v 0.6 0.8 -0.5
v 0.6 0.8 -0.8
v 0.7 0.7 0.5
v 0.7 0.7 0.4
v 0.7 1.2 0.5
v 0.7 1.2 0.4
v -0.1 0.2 1.1
v -0.1 1.1 1.1
v 0.2 0.2 1.1
v 0.2 1.1 1.1
v -0.2 0.5 0.9
v -0.2 0.7 0.9
v -0.2 1.3 0.9
v -0.1 0.5 0.9
v -0.1 0.7 0.9
v -0.1 1.1 0.9
v 0.2 0.5 0.9
v 0.2 0.7 0.9
v 0.2 1.1 0.9
v 0.3 0.5 0.9
v 0.3 0.7 0.9
v 0.3 1.3 0.9
v -0.2 1.3 0.7
v -0.2 1.4 0.7
v 0.3 1.3 0.7
v 0.3 1.4 0.7
v -0.3 1.1 0.6
v -0.3 1.3 0.6
v -0.2 1.1 0.6
v -0.2 1.3 0.6
v 0.3 1.1 0.6
v 0.3 1.3 0.6
v 0.4 1.1 0.6
v 0.4 1.3 0.6
v -0.6 0.7 0.5
v -0.6 1.2 0.5
v -0.5 0.6 0.5
v -0.5 0.7 0.5
v -0.3 1.1 0.5
v -0.3 1.2 0.5
v -0.2 0.6 0.5
v -0.2 1.1 0.5
v 0.3 0.6 0.5
v 0.3 1.1 0.5
v 0.4 1.1 0.5
v 0.4 1.2 0.5
v 0.6 0.6 0.5
v 0.6 0.7 0.5
v 0.7 0.7 0.5
v 0.7 1.2 0.5
v -0.2 0.5 0.4
v -0.2 0.6 0.4
v 0.3 0.5 0.4
v 0.3 0.6 0.4
v -0.5 0 0.3
v -0.5 0.1 0.3
v -0.5 0.8 0.3
v -0.4 0 0.3
v -0.4 0.1 0.3
v -0.3 0 0.3
v -0.3 0.1 0.3
v -0.3 0.6 0.3
v -0.3 0.8 0.3
v -0.2 0 0.3
v -0.2 0.1 0.3
v -0.2 0.5 0.3
v -0.2 0.6 0.3
v 0.3 0 0.3
v 0.3 0.1 0.3
v 0.3 0.5 0.3
v 0.3 0.6 0.3
v 0.4 0 0.3
v 0.4 0.1 0.3
v 0.4 0.6 0.3
v 0.4 0.8 0.3
v 0.5 0 0.3
v 0.5 0.1 0.3
v 0.6 0 0.3
v 0.6 0.1 0.3
v 0.6 0.8 0.3
v -0.5 0 -0.5
v -0.5 0.1 -0.5
v -0.5 0.8 -0.5
v -0.4 0 -0.5
v -0.4 0.1 -0.5
v -0.3 0 -0.5
v -0.3 0.1 -0.5
v -0.3 0.5 -0.5
v -0.3 0.8 -0.5
v -0.2 0 -0.5
v -0.2 0.1 -0.5
v -0.2 0.5 -0.5
v 0.3 0 -0.5
v 0.3 0.1 -0.5
v 0.3 0.5 -0.5
v 0.4 0 -0.5
v 0.4 0.1 -0.5
v 0.4 0.5 -0.5
v 0.4 0.8 -0.5
v 0.5 0 -0.5
v 0.5 0.1 -0.5
v 0.6 0 -0.5
v 0.6 0.1 -0.5
v 0.6 0.8 -0.5
v -0.1 0.2 0.9
v -0.1 0.5 0.9
v -0.1 0.6 0.9
v 0.2 0.2 0.9
v 0.2 0.5 0.9
v 0.2 0.6 0.9
v -0.2 0.5 0.8
v -0.2 0.6 0.8
v -0.1 0.5 0.8
v -0.1 0.6 0.8
v 0.2 0.5 0.8
v 0.2 0.6 0.8
v 0.3 0.5 0.8
v 0.3 0.6 0.8
v -0.6 0.7 0.4
v -0.6 1.2 0.4
v -0.5 0.6 0.4
v -0.5 0.7 0.4
v -0.3 0.6 0.4
v -0.3 1.1 0.4
v -0.3 1.2 0.4
v -0.3 1.3 0.4
v -0.2 1.1 0.4
v -0.2 1.3 0.4
v -0.2 1.4 0.4
v 0.3 1.1 0.4
v 0.3 1.3 0.4
v 0.3 1.4 0.4
v 0.4 0.6 0.4
v 0.4 1.1 0.4
v 0.4 1.2 0.4
v 0.4 1.3 0.4
v 0.6 0.6 0.4
v 0.6 0.7 0.4
v 0.7 0.7 0.4
v 0.7 1.2 0.4
v -0.2 1.1 0.3
v -0.2 1.3 0.3
v -0.1 1.1 0.3
v -0.1 1.2 0.3
v 0.2 1.1 0.3
v 0.2 1.2 0.3
v 0.3 1.1 0.3
v 0.3 1.3 0.3
v -0.5 0 0
v -0.5 0.8 0
v -0.3 0.5 0
v -0.3 0.8 0
v -0.2 0 0
v -0.2 0.5 0
v 0.3 0 0
v 0.3 0.5 0
v 0.4 0.5 0
v 0.4 0.8 0
v 0.6 0 0
v 0.6 0.8 0
v -0.5 0 -0.8
v -0.5 0.8 -0.8
v -0.3 0.8 -0.8
v -0.3 1.1 -0.8
v -0.2 0 -0.8
v -0.2 0.5 -0.8
v -0.1 0.5 -0.8
v -0.1 1.1 -0.8
v -0.1 1.2 -0.8
v 0.2 0.5 -0.8
v 0.2 1.1 -0.8
v 0.2 1.2 -0.8
v 0.3 0 -0.8
v 0.3 0.5 -0.8
v 0.4 0.8 -0.8
v 0.4 1.1 -0.8
v 0.6 0 -0.8
v 0.6 0.8 -0.8
v -0.1 0.5 -0.9
v -0.1 1.1 -0.9
v 0.2 0.5 -0.9
v 0.2 1.1 -0.9
v -0.5 0 0.3
v -0.4 0 0.3
v -0.3 0 0.3
v -0.2 0 0.3
v 0.3 0 0.3
v 0.4 0 0.3
v 0.5 0 0.3
v 0.6 0 0.3
v -0.5 0 0.2
v -0.4 0 0.2
v -0.3 0 0.2
v -0.2 0 0.2
v 0.3 0 0.2
v 0.4 0 0.2
v 0.5 0 0.2
v 0.6 0 0.2
v -0.5 0 0
v -0.2 0 0
v 0.3 0 0
v 0.6 0 0
v -0.5 0 -0.5
v -0.4 0 -0.5
v -0.3 0 -0.5
v -0.2 0 -0.5
v 0.3 0 -0.5
v 0.4 0 -0.5
v 0.5 0 -0.5
v 0.6 0 -0.5
v -0.5 0 -0.6
v -0.4 0 -0.6
v -0.3 0 -0.6
v -0.2 0 -0.6
v 0.3 0 -0.6
v 0.4 0 -0.6
v 0.5 0 -0.6
v 0.6 0 -0.6
v -0.5 0 -0.8
v -0.2 0 -0.8
v 0.3 0 -0.8
v 0.6 0 -0.8
v -0.1 0.2 1.1
v 0.2 0.2 1.1
v -0.1 0.2 0.9
v 0.2 0.2 0.9
v -0.2 0.5 0.9
v -0.1 0.5 0.9
v 0.2 0.5 0.9
v 0.3 0.5 0.9
v -0.2 0.5 0.8
v -0.1 0.5 0.8
v 0.2 0.5 0.8
v 0.3 0.5 0.8
v -0.2 0.5 0.4
v 0.3 0.5 0.4
v -0.2 0.5 0.3
v 0.3 0.5 0.3
v -0.3 0.5 0
v -0.2 0.5 0
v 0.3 0.5 0
v 0.4 0.5 0
v -0.3 0.5 -0.5
v -0.2 0.5 -0.5
v 0.3 0.5 -0.5
v 0.4 0.5 -0.5
v -0.2 0.5 -0.8
v -0.1 0.5 -0.8
v 0.2 0.5 -0.8
v 0.3 0.5 -0.8
v -0.1 0.5 -0.9
v 0.2 0.5 -0.9
v -0.1 0.6 0.9
v 0.2 0.6 0.9
v -0.2 0.6 0.8
v -0.1 0.6 0.8
v 0.2 0.6 0.8
v 0.3 0.6 0.8
v -0.5 0.6 0.5
v -0.2 0.6 0.5
v 0.3 0.6 0.5
v 0.6 0.6 0.5
v -0.5 0.6 0.4
v -0.3 0.6 0.4
v -0.2 0.6 0.4
v 0.3 0.6 0.4
v 0.4 0.6 0.4
v 0.6 0.6 0.4
v -0.3 0.6 0.3
v -0.2 0.6 0.3
v 0.3 0.6 0.3
v 0.4 0.6 0.3
v -0.6 0.7 0.5
v -0.5 0.7 0.5
v 0.6 0.7 0.5
v 0.7 0.7 0.5
v -0.6 0.7 0.4
v -0.5 0.7 0.4
v 0.6 0.7 0.4
v 0.7 0.7 0.4
v -0.3 1.1 0.6
v -0.2 1.1 0.6
v 0.3 1.1 0.6
v 0.4 1.1 0.6
v -0.3 1.1 0.5
v -0.2 1.1 0.5
v 0.3 1.1 0.5
v 0.4 1.1 0.5
v -0.5 0.8 0.3
v -0.3 0.8 0.3
v 0.4 0.8 0.3
v 0.6 0.8 0.3
v -0.5 0.8 0
v -0.3 0.8 0
v 0.4 0.8 0
v 0.6 0.8 0
v -0.5 0.8 -0.5
v -0.3 0.8 -0.5
v 0.4 0.8 -0.5
v 0.6 0.8 -0.5
v -0.5 0.8 -0.8
v -0.3 0.8 -0.8
v 0.4 0.8 -0.8
v 0.6 0.8 -0.8
v -0.1 1.1 1.1
v 0.2 1.1 1.1
v -0.1 1.1 0.9
v 0.2 1.1 0.9
v -0.3 1.1 0.4
v -0.2 1.1 0.4
v 0.3 1.1 0.4
v 0.4 1.1 0.4
v -0.2 1.1 0.3
v -0.1 1.1 0.3
v 0.2 1.1 0.3
v 0.3 1.1 0.3
v -0.3 1.1 -0.8
v -0.1 1.1 -0.8
v 0.2 1.1 -0.8
v 0.4 1.1 -0.8
v -0.1 1.1 -0.9
v 0.2 1.1 -0.9
v -0.6 1.2 0.5
v -0.3 1.2 0.5
v 0.4 1.2 0.5
v 0.7 1.2 0.5
v -0.6 1.2 0.4
v -0.3 1.2 0.4
v 0.4 1.2 0.4
v 0.7 1.2 0.4
v -0.1 1.2 0.3
v 0.2 1.2 0.3
v -0.1 1.2 -0.8
v 0.2 1.2 -0.8
v -0.2 1.3 0.9
v 0.3 1.3 0.9
v -0.2 1.3 0.7
v 0.3 1.3 0.7
v -0.3 1.3 0.6
v -0.2 1.3 0.6
v 0.3 1.3 0.6
v 0.4 1.3 0.6
v -0.3 1.3 0.4
v -0.2 1.3 0.4
v 0.3 1.3 0.4
v 0.4 1.3 0.4
v -0.2 1.3 0.3
v 0.3 1.3 0.3
v -0.2 1.4 0.7
v 0.3 1.4 0.7
v -0.2 1.4 0.4
v 0.3 1.4 0.4

# faces
f 3/2/1 2/2/1 1/2/1
f 4/2/1 2/2/1 3/2/1
f 11/1/1 6/1/1 5/1/1
f 12/2/1 7/2/1 6/2/1
f 12/1/1 6/1/1 11/1/1
f 13/1/1 9/1/1 8/1/1
f 14/2/1 10/2/1 9/2/1
f 14/1/1 9/1/1 13/1/1
f 17/2/1 16/2/1 15/2/1
f 18/2/1 16/2/1 17/2/1
f 19/2/1 12/2/1 11/2/1
f 20/2/1 7/2/1 12/2/1
f 20/2/1 12/2/1 19/2/1
f 21/2/1 14/2/1 13/2/1
f 22/2/1 10/2/1 14/2/1
f 22/2/1 14/2/1 21/2/1
f 27/2/1 26/2/1 25/2/1
f 28/2/1 24/2/1 23/2/1
f 29/2/1 24/2/1 28/2/1
f 33/2/1 27/2/1 25/2/1
f 33/2/1 28/2/1 27/2/1
f 33/2/1 30/2/1 29/2/1
f 33/2/1 29/2/1 28/2/1
f 34/2/1 30/2/1 33/2/1
f 35/2/1 32/2/1 31/2/1
f 37/2/1 35/2/1 31/2/1
f 37/2/1 36/2/1 35/2/1
f 38/2/1 36/2/1 37/2/1
f 43/1/1 40/1/1 39/1/1
f 45/2/1 42/2/1 41/2/1
f 46/2/1 42/2/1 45/2/1
f 47/1/1 43/1/1 39/1/1
f 48/2/1 44/2/1 43/2/1
f 48/1/1 43/1/1 47/1/1
f 49/2/1 48/2/1 47/2/1
f 49/2/1 44/2/1 48/2/1
f 50/2/1 44/2/1 49/2/1
f 51/2/1 49/2/1 47/2/1
f 51/3/1 50/3/1 49/3/1
f 52/2/1 44/2/1 50/2/1
f 52/3/1 50/3/1 51/3/1
f 53/2/1 44/2/1 52/2/1
f 56/2/1 51/2/1 47/2/1
f 56/2/1 52/2/1 51/2/1
f 57/2/1 52/2/1 56/2/1
f 58/2/1 52/2/1 57/2/1
f 59/2/1 55/2/1 54/2/1
f 60/2/1 55/2/1 59/2/1
f 61/2/1 58/2/1 57/2/1
f 61/2/1 59/2/1 58/2/1
f 62/2/1 59/2/1 61/2/1
f 65/2/1 64/2/1 63/2/1
f 68/2/1 65/2/1 63/2/1
f 69/2/1 68/2/1 63/2/1
f 70/2/1 68/2/1 69/2/1
f 72/2/1 67/2/1 66/2/1
f 73/2/1 67/2/1 72/2/1
f 74/2/1 72/2/1 71/2/1
f 75/2/1 72/2/1 74/2/1
f 78/1/1 77/1/1 76/1/1
f 79/1/1 77/1/1 78/1/1
f 86/1/1 81/1/1 80/1/1
f 87/2/1 82/2/1 81/2/1
f 87/1/1 81/1/1 86/1/1
f 88/1/1 84/1/1 83/1/1
f 89/2/1 85/2/1 84/2/1
f 89/1/1 84/1/1 88/1/1
f 90/2/1 87/2/1 86/2/1
f 91/2/1 82/2/1 87/2/1
f 91/2/1 87/2/1 90/2/1
f 92/2/1 89/2/1 88/2/1
f 93/2/1 85/2/1 89/2/1
f 93/2/1 89/2/1 92/2/1
f 94/1/2 95/1/2 100/1/2
f 95/2/2 96/2/2 101/2/2
f 100/1/2 95/1/2 101/1/2
f 97/1/2 98/1/2 102/1/2
f 98/2/2 99/2/2 103/2/2
f 102/1/2 98/1/2 103/1/2
f 100/2/2 101/2/2 104/2/2
f 101/2/2 96/2/2 105/2/2
f 104/2/2 101/2/2 105/2/2
f 102/2/2 103/2/2 106/2/2
f 103/2/2 99/2/2 107/2/2
f 106/2/2 103/2/2 107/2/2
f 108/1/2 109/1/2 110/1/2
f 110/1/2 109/1/2 111/1/2
f 112/2/2 113/2/2 114/2/2
f 112/2/2 114/2/2 117/2/2
f 112/2/2 117/2/2 118/2/2
f 118/2/2 117/2/2 119/2/2
f 115/2/2 116/2/2 121/2/2
f 121/2/2 116/2/2 122/2/2
f 120/2/2 121/2/2 123/2/2
f 123/2/2 121/2/2 124/2/2
f 125/1/2 126/1/2 129/1/2
f 127/2/2 128/2/2 131/2/2
f 131/2/2 128/2/2 132/2/2
f 125/1/2 129/1/2 133/1/2
f 129/2/2 130/2/2 134/2/2
f 133/1/2 129/1/2 134/1/2
f 133/2/2 134/2/2 135/2/2
f 134/2/2 130/2/2 135/2/2
f 135/2/2 130/2/2 136/2/2
f 133/2/2 135/2/2 137/2/2
f 135/3/2 136/3/2 137/3/2
f 136/2/2 130/2/2 138/2/2
f 137/3/2 136/3/2 138/3/2
f 138/2/2 130/2/2 139/2/2
f 133/2/2 137/2/2 142/2/2
f 137/2/2 138/2/2 142/2/2
f 142/2/2 138/2/2 143/2/2
f 143/2/2 138/2/2 144/2/2
f 140/2/2 141/2/2 145/2/2
f 145/2/2 141/2/2 146/2/2
f 143/2/2 144/2/2 147/2/2
f 144/2/2 145/2/2 147/2/2
f 147/2/2 145/2/2 148/2/2
f 151/2/2 152/2/2 153/2/2
f 149/2/2 150/2/2 154/2/2
f 154/2/2 150/2/2 155/2/2
f 151/2/2 153/2/2 159/2/2
f 153/2/2 154/2/2 159/2/2
f 155/2/2 156/2/2 159/2/2
f 154/2/2 155/2/2 159/2/2
f 159/2/2 156/2/2 160/2/2
f 157/2/2 158/2/2 161/2/2
f 157/2/2 161/2/2 163/2/2
f 161/2/2 162/2/2 163/2/2
f 163/2/2 162/2/2 164/2/2
f 165/1/2 166/1/2 171/1/2
f 166/2/2 167/2/2 172/2/2
f 171/1/2 166/1/2 172/1/2
f 168/1/2 169/1/2 173/1/2
f 169/2/2 170/2/2 174/2/2
f 173/1/2 169/1/2 174/1/2
f 175/2/2 176/2/2 177/2/2
f 177/2/2 176/2/2 178/2/2
f 171/2/2 172/2/2 179/2/2
f 172/2/2 167/2/2 180/2/2
f 179/2/2 172/2/2 180/2/2
f 173/2/2 174/2/2 181/2/2
f 174/2/2 170/2/2 182/2/2
f 181/2/2 174/2/2 182/2/2
f 183/2/2 184/2/2 185/2/2
f 185/2/2 184/2/2 186/2/2
f 189/2/3 188/2/3 187/2/3
f 190/2/3 188/2/3 189/2/3
f 194/1/3 192/1/3 191/1/3
f 195/2/3 193/2/3 192/2/3
f 195/1/3 192/1/3 194/1/3
f 196/2/3 193/2/3 195/2/3
f 199/2/3 193/2/3 196/2/3
f 200/1/3 198/1/3 197/1/3
f 201/2/3 199/2/3 198/2/3
f 201/1/3 198/1/3 200/1/3
f 202/2/3 193/2/3 199/2/3
f 202/2/3 199/2/3 201/2/3
f 205/2/3 204/2/3 203/2/3
f 206/2/3 204/2/3 205/2/3
f 209/2/3 208/2/3 207/2/3
f 210/2/3 208/2/3 209/2/3
f 213/2/3 212/2/3 211/2/3
f 214/2/3 212/2/3 213/2/3
f 218/2/3 216/2/3 215/2/3
f 219/2/3 216/2/3 218/2/3
f 219/2/3 218/2/3 217/2/3
f 220/2/3 216/2/3 219/2/3
f 221/2/3 219/2/3 217/2/3
f 222/2/3 219/2/3 221/2/3
f 225/2/3 224/2/3 223/2/3
f 227/2/3 225/2/3 223/2/3
f 227/2/3 226/2/3 225/2/3
f 228/2/3 226/2/3 227/2/3
f 229/2/3 226/2/3 228/2/3
f 230/2/3 226/2/3 229/2/3
f 233/2/3 232/2/3 231/2/3
f 234/2/3 232/2/3 233/2/3
f 238/1/3 236/1/3 235/1/3
f 239/2/3 237/2/3 236/2/3
f 239/1/3 236/1/3 238/1/3
f 240/2/3 239/2/3 238/2/3
f 241/2/3 237/2/3 239/2/3
f 241/2/3 239/2/3 240/2/3
f 242/2/3 237/2/3 241/2/3
f 243/2/3 237/2/3 242/2/3
f 244/1/3 241/1/3 240/1/3
f 245/2/3 242/2/3 241/2/3
f 245/1/3 241/1/3 244/1/3
f 246/2/3 242/2/3 245/2/3
f 247/2/3 242/2/3 246/2/3
f 252/1/3 249/1/3 248/1/3
f 253/2/3 251/2/3 250/2/3
f 253/1/3 249/1/3 252/1/3
f 253/2/3 250/2/3 249/2/3
f 254/2/3 251/2/3 253/2/3
f 256/2/3 254/2/3 253/2/3
f 256/2/3 255/2/3 254/2/3
f 256/2/3 253/2/3 252/2/3
f 257/2/3 255/2/3 256/2/3
f 258/1/3 257/1/3 256/1/3
f 259/2/3 255/2/3 257/2/3
f 259/1/3 257/1/3 258/1/3
f 260/2/3 255/2/3 259/2/3
f 264/1/3 262/1/3 261/1/3
f 265/2/3 263/2/3 262/2/3
f 265/1/3 262/1/3 264/1/3
f 266/2/3 265/2/3 264/2/3
f 267/2/3 263/2/3 265/2/3
f 267/2/3 265/2/3 266/2/3
f 268/2/3 263/2/3 267/2/3
f 269/2/3 263/2/3 268/2/3
f 270/1/3 267/1/3 266/1/3
f 271/2/3 268/2/3 267/2/3
f 271/1/3 267/1/3 270/1/3
f 272/2/3 268/2/3 271/2/3
f 276/1/3 274/1/3 273/1/3
f 277/2/3 275/2/3 274/2/3
f 277/1/3 274/1/3 276/1/3
f 278/2/3 275/2/3 277/2/3
f 280/2/3 278/2/3 277/2/3
f 280/2/3 279/2/3 278/2/3
f 280/2/3 277/2/3 276/2/3
f 281/2/3 279/2/3 280/2/3
f 282/1/3 281/1/3 280/1/3
f 283/2/3 279/2/3 281/2/3
f 283/1/3 281/1/3 282/1/3
f 284/2/3 279/2/3 283/2/3
f 285/2/4 286/2/4 288/2/4
f 286/2/4 287/2/4 288/2/4
f 288/2/4 287/2/4 289/2/4
f 289/2/4 287/2/4 290/2/4
f 291/1/4 292/1/4 293/1/4
f 293/1/4 292/1/4 294/1/4
f 295/1/4 296/1/4 297/1/4
f 297/1/4 296/1/4 298/1/4
f 299/2/4 300/2/4 302/2/4
f 301/2/4 302/2/4 303/2/4
f 302/2/4 300/2/4 304/2/4
f 303/2/4 302/2/4 304/2/4
f 304/2/4 300/2/4 305/2/4
f 305/2/4 306/2/4 307/2/4
f 304/2/4 305/2/4 307/2/4
f 307/2/4 306/2/4 308/2/4
f 308/2/4 309/2/4 311/2/4
f 311/2/4 309/2/4 312/2/4
f 310/2/4 311/2/4 314/2/4
f 314/2/4 311/2/4 315/2/4
f 315/2/4 311/2/4 316/2/4
f 313/2/4 314/2/4 317/2/4
f 314/2/4 315/2/4 317/2/4
f 317/2/4 315/2/4 318/2/4
f 318/2/4 315/2/4 319/2/4
f 319/2/4 315/2/4 320/2/4
f 321/2/4 322/2/4 323/2/4
f 323/2/4 322/2/4 324/2/4
f 324/2/4 322/2/4 326/2/4
f 325/2/4 326/2/4 327/2/4
f 326/2/4 322/2/4 328/2/4
f 327/2/4 326/2/4 328/2/4
f 329/2/4 330/2/4 331/2/4
f 331/2/4 330/2/4 332/2/4
f 329/2/4 331/2/4 333/2/4
f 333/2/4 331/2/4 334/2/4
f 335/2/4 336/2/4 337/2/4
f 335/2/4 337/2/4 339/2/4
f 337/2/4 338/2/4 339/2/4
f 339/2/4 338/2/4 340/2/4
f 341/2/4 342/2/4 343/2/4
f 341/2/4 343/2/4 345/2/4
f 343/2/4 344/2/4 345/2/4
f 345/2/4 344/2/4 346/2/4
f 346/2/4 344/2/4 347/2/4
f 347/2/4 344/2/4 348/2/4
f 348/2/4 349/2/4 351/2/4
f 351/2/4 349/2/4 352/2/4
f 350/2/4 351/2/4 354/2/4
f 354/2/4 351/2/4 355/2/4
f 353/2/4 354/2/4 355/2/4
f 355/2/4 351/2/4 356/2/4
f 353/2/4 355/2/4 357/2/4
f 357/2/4 355/2/4 358/2/4
f 359/2/4 360/2/4 361/2/4
f 361/2/4 360/2/4 362/2/4
f 371/1/5 364/1/5 363/1/5
f 372/2/5 365/2/5 364/2/5
f 372/1/5 364/1/5 371/1/5
f 373/1/5 366/1/5 365/1/5
f 373/2/5 365/2/5 372/2/5
f 374/1/5 366/1/5 373/1/5
f 375/1/5 368/1/5 367/1/5
f 376/2/5 369/2/5 368/2/5
f 376/1/5 368/1/5 375/1/5
f 377/1/5 370/1/5 369/1/5
f 377/2/5 369/2/5 376/2/5
f 378/1/5 370/1/5 377/1/5
f 379/2/5 372/2/5 371/2/5
f 379/2/5 374/2/5 373/2/5
f 379/2/5 373/2/5 372/2/5
f 380/2/5 374/2/5 379/2/5
f 381/2/5 376/2/5 375/2/5
f 381/2/5 378/2/5 377/2/5
f 381/2/5 377/2/5 376/2/5
f 382/2/5 378/2/5 381/2/5
f 391/1/5 384/1/5 383/1/5
f 392/2/5 385/2/5 384/2/5
f 392/1/5 384/1/5 391/1/5
f 393/1/5 386/1/5 385/1/5
f 393/2/5 385/2/5 392/2/5
f 394/1/5 386/1/5 393/1/5
f 395/1/5 388/1/5 387/1/5
f 396/2/5 389/2/5 388/2/5
f 396/1/5 388/1/5 395/1/5
f 397/1/5 390/1/5 389/1/5
f 397/2/5 389/2/5 396/2/5
f 398/1/5 390/1/5 397/1/5
f 399/2/5 392/2/5 391/2/5
f 399/2/5 394/2/5 393/2/5
f 399/2/5 393/2/5 392/2/5
f 400/2/5 394/2/5 399/2/5
f 401/2/5 396/2/5 395/2/5
f 401/2/5 398/2/5 397/2/5
f 401/2/5 397/2/5 396/2/5
f 402/2/5 398/2/5 401/2/5
f 405/2/5 404/2/5 403/2/5
f 406/2/5 404/2/5 405/2/5
f 411/1/5 408/1/5 407/1/5
f 412/1/5 408/1/5 411/1/5
f 413/1/5 410/1/5 409/1/5
f 414/1/5 410/1/5 413/1/5
f 417/2/5 416/2/5 415/2/5
f 418/2/5 416/2/5 417/2/5
f 420/2/5 418/2/5 417/2/5
f 421/2/5 418/2/5 420/2/5
f 423/2/5 421/2/5 420/2/5
f 423/2/5 422/2/5 421/2/5
f 423/2/5 420/2/5 419/2/5
f 424/2/5 422/2/5 423/2/5
f 425/2/5 422/2/5 424/2/5
f 426/2/5 422/2/5 425/2/5
f 427/2/5 425/2/5 424/2/5
f 428/2/5 425/2/5 427/2/5
f 429/2/5 425/2/5 428/2/5
f 430/2/5 425/2/5 429/2/5
f 431/2/5 429/2/5 428/2/5
f 432/2/5 429/2/5 431/2/5
f 436/2/5 434/2/5 433/2/5
f 437/2/5 434/2/5 436/2/5
f 440/2/5 436/2/5 435/2/5
f 440/2/5 438/2/5 437/2/5
f 440/2/5 437/2/5 436/2/5
f 441/2/5 438/2/5 440/2/5
f 443/2/5 440/2/5 439/2/5
f 443/2/5 442/2/5 441/2/5
f 443/2/5 441/2/5 440/2/5
f 444/2/5 442/2/5 443/2/5
f 445/2/5 442/2/5 444/2/5
f 446/2/5 442/2/5 445/2/5
f 447/2/5 442/2/5 446/2/5
f 448/2/5 442/2/5 447/2/5
f 449/2/5 445/2/5 444/2/5
f 450/2/5 445/2/5 449/2/5
f 451/2/5 447/2/5 446/2/5
f 452/2/5 447/2/5 451/2/5
f 457/2/5 454/2/5 453/2/5
f 458/2/5 454/2/5 457/2/5
f 459/2/5 456/2/5 455/2/5
f 460/2/5 456/2/5 459/2/5
f 465/2/5 462/2/5 461/2/5
f 466/2/5 462/2/5 465/2/5
f 467/2/5 464/2/5 463/2/5
f 468/2/5 464/2/5 467/2/5
f 469/2/6 470/2/6 473/2/6
f 473/2/6 470/2/6 474/2/6
f 471/2/6 472/2/6 475/2/6
f 475/2/6 472/2/6 476/2/6
f 477/2/6 478/2/6 481/2/6
f 481/2/6 478/2/6 482/2/6
f 479/2/6 480/2/6 483/2/6
f 483/2/6 480/2/6 484/2/6
f 485/2/6 486/2/6 487/2/6
f 487/2/6 486/2/6 488/2/6
f 489/2/6 490/2/6 493/2/6
f 491/2/6 492/2/6 496/2/6
f 493/2/6 494/2/6 497/2/6
f 489/2/6 493/2/6 497/2/6
f 497/2/6 494/2/6 498/2/6
f 495/2/6 496/2/6 499/2/6
f 496/2/6 492/2/6 500/2/6
f 499/2/6 496/2/6 500/2/6
f 498/2/6 499/2/6 501/2/6
f 501/2/6 499/2/6 502/2/6
f 503/2/6 504/2/6 507/2/6
f 507/2/6 504/2/6 508/2/6
f 505/2/6 506/2/6 509/2/6
f 509/2/6 506/2/6 510/2/6
f 511/2/6 512/2/6 513/2/6
f 513/2/6 512/2/6 514/2/6
f 515/2/6 516/2/6 517/2/6
f 517/2/6 516/2/6 518/2/6
f 519/2/6 520/2/6 523/2/6
f 523/2/6 520/2/6 524/2/6
f 521/2/6 522/2/6 525/2/6
f 525/2/6 522/2/6 526/2/6
f 524/2/6 525/2/6 527/2/6
f 527/2/6 525/2/6 528/2/6
f 529/2/6 530/2/6 531/2/6
f 531/2/6 530/2/6 532/2/6
