# MagicaVoxel @ Ephtracy

# group
o 

# material
mtllib fence.mtl
usemtl palette

# normals
vn -1 0 0
vn 1 0 0
vn 0 0 1
vn 0 0 -1
vn 0 -1 0
vn 0 1 0

# texcoords
vt 0.279297 0.5
vt 0.302734 0.5

# verts
v -1.7 0 0.1
v -1.7 0 -0.2
v -1.7 2.1 0.1
v -1.7 2.1 -0.2
v -1.2 0 0.1
v -1.2 0 0
v -1.2 0.2 0
v -1.2 0.5 0
v -1.2 1.6 0
v -1.2 1.9 0
v -1.2 2 0.1
v -1.2 2 0
v -0.7 0 0.1
v -0.7 0 0
v -0.7 0.2 0
v -0.7 0.5 0
v -0.7 1.6 0
v -0.7 1.9 0
v -0.7 2 0.1
v -0.7 2 0
v -0.2 0 0.1
v -0.2 0 0
v -0.2 0.2 0
v -0.2 0.5 0
v -0.2 1.6 0
v -0.2 1.9 0
v -0.2 2 0.1
v -0.2 2 0
v 0.3 0 0.1
v 0.3 0 0
v 0.3 0.2 0
v 0.3 0.5 0
v 0.3 1.6 0
v 0.3 1.9 0
v 0.3 2 0.1
v 0.3 2 0
v 0.8 0 0.1
v 0.8 0 0
v 0.8 0.2 0
v 0.8 0.5 0
v 0.8 1.6 0
v 0.8 1.9 0
v 0.8 2 0.1
v 0.8 2 0
v 1.3 0 0.1
v 1.3 0 0
v 1.3 0.2 0
v 1.3 0.5 0
v 1.3 1.6 0
v 1.3 1.9 0
v 1.3 2 0.1
v 1.3 2 0
v -1.4 0 0.1
v -1.4 0 -0.2
v -1.4 0.2 0
v -1.4 0.2 -0.1
v -1.4 0.5 0
v -1.4 0.5 -0.1
v -1.4 1.6 0
v -1.4 1.6 -0.1
v -1.4 1.9 0
v -1.4 1.9 -0.1
v -1.4 2.1 0.1
v -1.4 2.1 -0.2
v -0.9 0 0.1
v -0.9 0 0
v -0.9 0.2 0
v -0.9 0.5 0
v -0.9 1.6 0
v -0.9 1.9 0
v -0.9 2 0.1
v -0.9 2 0
v -0.4 0 0.1
v -0.4 0 0
v -0.4 0.2 0
v -0.4 0.5 0
v -0.4 1.6 0
v -0.4 1.9 0
v -0.4 2 0.1
v -0.4 2 0
v 0.0999999 0 0.1
v 0.0999999 0 0
v 0.0999999 0.2 0
v 0.0999999 0.5 0
v 0.0999999 1.6 0
v 0.0999999 1.9 0
v 0.0999999 2 0.1
v 0.0999999 2 0
v 0.6 0 0.1
v 0.6 0 0
v 0.6 0.2 0
v 0.6 0.5 0
v 0.6 1.6 0
v 0.6 1.9 0
v 0.6 2 0.1
v 0.6 2 0
v 1.1 0 0.1
v 1.1 0 0
v 1.1 0.2 0
v 1.1 0.5 0
v 1.1 1.6 0
v 1.1 1.9 0
v 1.1 2 0.1
v 1.1 2 0
v 1.6 0 0.1
v 1.6 0 0
v 1.6 0.2 0
v 1.6 0.5 0
v 1.6 1.6 0
v 1.6 1.9 0
v 1.6 2 0.1
v 1.6 2 0
v 1.8 0.2 0
v 1.8 0.2 -0.1
v 1.8 0.5 0
v 1.8 0.5 -0.1
v 1.8 1.6 0
v 1.8 1.6 -0.1
v 1.8 1.9 0
v 1.8 1.9 -0.1
v -1.7 0 0.1
v -1.7 2.1 0.1
v -1.4 0 0.1
v -1.4 2.1 0.1
v -1.2 0 0.1
v -1.2 2 0.1
v -0.9 0 0.1
v -0.9 2 0.1
v -0.7 0 0.1
v -0.7 2 0.1
v -0.4 0 0.1
v -0.4 2 0.1
v -0.2 0 0.1
v -0.2 2 0.1
v 0.0999999 0 0.1
v 0.0999999 2 0.1
v 0.3 0 0.1
v 0.3 2 0.1
v 0.6 0 0.1
v 0.6 2 0.1
v 0.8 0 0.1
v 0.8 2 0.1
v 1.1 0 0.1
v 1.1 2 0.1
v 1.3 0 0.1
v 1.3 2 0.1
v 1.6 0 0.1
v 1.6 2 0.1
v -1.4 0.2 0
v -1.4 0.5 0
v -1.4 1.6 0
v -1.4 1.9 0
v -1.2 0.2 0
v -1.2 0.5 0
v -1.2 1.6 0
v -1.2 1.9 0
v -0.9 0.2 0
v -0.9 0.5 0
v -0.9 1.6 0
v -0.9 1.9 0
v -0.7 0.2 0
v -0.7 0.5 0
v -0.7 1.6 0
v -0.7 1.9 0
v -0.4 0.2 0
v -0.4 0.5 0
v -0.4 1.6 0
v -0.4 1.9 0
v -0.2 0.2 0
v -0.2 0.5 0
v -0.2 1.6 0
v -0.2 1.9 0
v 0.0999999 0.2 0
v 0.0999999 0.5 0
v 0.0999999 1.6 0
v 0.0999999 1.9 0
v 0.3 0.2 0
v 0.3 0.5 0
v 0.3 1.6 0
v 0.3 1.9 0
v 0.6 0.2 0
v 0.6 0.5 0
v 0.6 1.6 0
v 0.6 1.9 0
v 0.8 0.2 0
v 0.8 0.5 0
v 0.8 1.6 0
v 0.8 1.9 0
v 1.1 0.2 0
v 1.1 0.5 0
v 1.1 1.6 0
v 1.1 1.9 0
v 1.3 0.2 0
v 1.3 0.5 0
v 1.3 1.6 0
v 1.3 1.9 0
v 1.6 0.2 0
v 1.6 0.5 0
v 1.6 1.6 0
v 1.6 1.9 0
v 1.8 0.2 0
v 1.8 0.5 0
v 1.8 1.6 0
v 1.8 1.9 0
v -1.2 0 0
v -1.2 0.2 0
v -1.2 0.5 0
v -1.2 1.6 0
v -1.2 1.9 0
v -1.2 2 0
v -0.9 0 0
v -0.9 0.2 0
v -0.9 0.5 0
v -0.9 1.6 0
v -0.9 1.9 0
v -0.9 2 0
v -0.7 0 0
v -0.7 0.2 0
v -0.7 0.5 0
v -0.7 1.6 0
v -0.7 1.9 0
v -0.7 2 0
v -0.4 0 0
v -0.4 0.2 0
v -0.4 0.5 0
v -0.4 1.6 0
v -0.4 1.9 0
v -0.4 2 0
v -0.2 0 0
v -0.2 0.2 0
v -0.2 0.5 0
v -0.2 1.6 0
v -0.2 1.9 0
v -0.2 2 0
v 0.0999999 0 0
v 0.0999999 0.2 0
v 0.0999999 0.5 0
v 0.0999999 1.6 0
v 0.0999999 1.9 0
v 0.0999999 2 0
v 0.3 0 0
v 0.3 0.2 0
v 0.3 0.5 0
v 0.3 1.6 0
v 0.3 1.9 0
v 0.3 2 0
v 0.6 0 0
v 0.6 0.2 0
v 0.6 0.5 0
v 0.6 1.6 0
v 0.6 1.9 0
v 0.6 2 0
v 0.8 0 0
v 0.8 0.2 0
v 0.8 0.5 0
v 0.8 1.6 0
v 0.8 1.9 0
v 0.8 2 0
v 1.1 0 0
v 1.1 0.2 0
v 1.1 0.5 0
v 1.1 1.6 0
v 1.1 1.9 0
v 1.1 2 0
v 1.3 0 0
v 1.3 0.2 0
v 1.3 0.5 0
v 1.3 1.6 0
v 1.3 1.9 0
v 1.3 2 0
v 1.6 0 0
v 1.6 0.2 0
v 1.6 0.5 0
v 1.6 1.6 0
v 1.6 1.9 0
v 1.6 2 0
v -1.4 0.2 -0.1
v -1.4 0.5 -0.1
v -1.4 1.6 -0.1
v -1.4 1.9 -0.1
v 1.8 0.2 -0.1
v 1.8 0.5 -0.1
v 1.8 1.6 -0.1
v 1.8 1.9 -0.1
v -1.7 0 -0.2
v -1.7 2.1 -0.2
v -1.4 0 -0.2
v -1.4 2.1 -0.2
v -1.7 0 0.1
v -1.4 0 0.1
v -1.2 0 0.1
v -0.9 0 0.1
v -0.7 0 0.1
v -0.4 0 0.1
v -0.2 0 0.1
v 0.0999999 0 0.1
v 0.3 0 0.1
v 0.6 0 0.1
v 0.8 0 0.1
v 1.1 0 0.1
v 1.3 0 0.1
v 1.6 0 0.1
v -1.2 0 0
v -0.9 0 0
v -0.7 0 0
v -0.4 0 0
v -0.2 0 0
v 0.0999999 0 0
v 0.3 0 0
v 0.6 0 0
v 0.8 0 0
v 1.1 0 0
v 1.3 0 0
v 1.6 0 0
v -1.7 0 -0.2
v -1.4 0 -0.2
v -1.4 0.2 0
v -1.2 0.2 0
v -0.9 0.2 0
v -0.7 0.2 0
v -0.4 0.2 0
v -0.2 0.2 0
v 0.0999999 0.2 0
v 0.3 0.2 0
v 0.6 0.2 0
v 0.8 0.2 0
v 1.1 0.2 0
v 1.3 0.2 0
v 1.6 0.2 0
v 1.8 0.2 0
v -1.4 0.2 -0.1
v 1.8 0.2 -0.1
v -1.4 1.6 0
v -1.2 1.6 0
v -0.9 1.6 0
v -0.7 1.6 0
v -0.4 1.6 0
v -0.2 1.6 0
v 0.0999999 1.6 0
v 0.3 1.6 0
v 0.6 1.6 0
v 0.8 1.6 0
v 1.1 1.6 0
v 1.3 1.6 0
v 1.6 1.6 0
v 1.8 1.6 0
v -1.4 1.6 -0.1
v 1.8 1.6 -0.1
v -1.4 0.5 0
v -1.2 0.5 0
v -0.9 0.5 0
v -0.7 0.5 0
v -0.4 0.5 0
v -0.2 0.5 0
v 0.0999999 0.5 0
v 0.3 0.5 0
v 0.6 0.5 0
v 0.8 0.5 0
v 1.1 0.5 0
v 1.3 0.5 0
v 1.6 0.5 0
v 1.8 0.5 0
v -1.4 0.5 -0.1
v 1.8 0.5 -0.1
v -1.4 1.9 0
v -1.2 1.9 0
v -0.9 1.9 0
v -0.7 1.9 0
v -0.4 1.9 0
v -0.2 1.9 0
v 0.0999999 1.9 0
v 0.3 1.9 0
v 0.6 1.9 0
v 0.8 1.9 0
v 1.1 1.9 0
v 1.3 1.9 0
v 1.6 1.9 0
v 1.8 1.9 0
v -1.4 1.9 -0.1
v 1.8 1.9 -0.1
v -1.2 2 0.1
v -0.9 2 0.1
v -0.7 2 0.1
v -0.4 2 0.1
v -0.2 2 0.1
v 0.0999999 2 0.1
v 0.3 2 0.1
v 0.6 2 0.1
v 0.8 2 0.1
v 1.1 2 0.1
v 1.3 2 0.1
v 1.6 2 0.1
v -1.2 2 0
v -0.9 2 0
v -0.7 2 0
v -0.4 2 0
v -0.2 2 0
v 0.0999999 2 0
v 0.3 2 0
v 0.6 2 0
v 0.8 2 0
v 1.1 2 0
v 1.3 2 0
v 1.6 2 0
v -1.7 2.1 0.1
v -1.4 2.1 0.1
v -1.7 2.1 -0.2
v -1.4 2.1 -0.2

# faces
f 3/1/1 2/1/1 1/1/1
f 4/1/1 2/1/1 3/1/1
f 7/1/1 6/1/1 5/1/1
f 8/1/1 7/1/1 5/1/1
f 9/1/1 8/1/1 5/1/1
f 10/1/1 9/1/1 5/1/1
f 11/1/1 10/1/1 5/1/1
f 12/1/1 10/1/1 11/1/1
f 15/1/1 14/1/1 13/1/1
f 16/1/1 15/1/1 13/1/1
f 17/1/1 16/1/1 13/1/1
f 18/1/1 17/1/1 13/1/1
f 19/1/1 18/1/1 13/1/1
f 20/1/1 18/1/1 19/1/1
f 23/1/1 22/1/1 21/1/1
f 24/1/1 23/1/1 21/1/1
f 25/1/1 24/1/1 21/1/1
f 26/1/1 25/1/1 21/1/1
f 27/1/1 26/1/1 21/1/1
f 28/1/1 26/1/1 27/1/1
f 31/1/1 30/1/1 29/1/1
f 32/1/1 31/1/1 29/1/1
f 33/1/1 32/1/1 29/1/1
f 34/1/1 33/1/1 29/1/1
f 35/1/1 34/1/1 29/1/1
f 36/1/1 34/1/1 35/1/1
f 39/1/1 38/1/1 37/1/1
f 40/1/1 39/1/1 37/1/1
f 41/1/1 40/1/1 37/1/1
f 42/1/1 41/1/1 37/1/1
f 43/1/1 42/1/1 37/1/1
f 44/1/1 42/1/1 43/1/1
f 47/1/1 46/1/1 45/1/1
f 48/1/1 47/1/1 45/1/1
f 49/1/1 48/1/1 45/1/1
f 50/1/1 49/1/1 45/1/1
f 51/1/1 50/1/1 45/1/1
f 52/1/1 50/1/1 51/1/1
f 53/1/2 54/1/2 55/1/2
f 55/1/2 54/1/2 56/1/2
f 53/1/2 55/1/2 57/1/2
f 56/1/2 54/1/2 58/1/2
f 53/1/2 57/1/2 59/1/2
f 57/1/2 58/1/2 59/1/2
f 58/1/2 54/1/2 60/1/2
f 59/1/2 58/1/2 60/1/2
f 53/1/2 59/1/2 61/1/2
f 60/1/2 54/1/2 62/1/2
f 53/1/2 61/1/2 63/1/2
f 61/1/2 62/1/2 63/1/2
f 62/1/2 54/1/2 64/1/2
f 63/1/2 62/1/2 64/1/2
f 65/1/2 66/1/2 67/1/2
f 65/1/2 67/1/2 68/1/2
f 65/1/2 68/1/2 69/1/2
f 65/1/2 69/1/2 70/1/2
f 65/1/2 70/1/2 71/1/2
f 71/1/2 70/1/2 72/1/2
f 73/1/2 74/1/2 75/1/2
f 73/1/2 75/1/2 76/1/2
f 73/1/2 76/1/2 77/1/2
f 73/1/2 77/1/2 78/1/2
f 73/1/2 78/1/2 79/1/2
f 79/1/2 78/1/2 80/1/2
f 81/1/2 82/1/2 83/1/2
f 81/1/2 83/1/2 84/1/2
f 81/1/2 84/1/2 85/1/2
f 81/1/2 85/1/2 86/1/2
f 81/1/2 86/1/2 87/1/2
f 87/1/2 86/1/2 88/1/2
f 89/1/2 90/1/2 91/1/2
f 89/1/2 91/1/2 92/1/2
f 89/1/2 92/1/2 93/1/2
f 89/1/2 93/1/2 94/1/2
f 89/1/2 94/1/2 95/1/2
f 95/1/2 94/1/2 96/1/2
f 97/1/2 98/1/2 99/1/2
f 97/1/2 99/1/2 100/1/2
f 97/1/2 100/1/2 101/1/2
f 97/1/2 101/1/2 102/1/2
f 97/1/2 102/1/2 103/1/2
f 103/1/2 102/1/2 104/1/2
f 105/1/2 106/1/2 107/1/2
f 105/1/2 107/1/2 108/1/2
f 105/1/2 108/1/2 109/1/2
f 105/1/2 109/1/2 110/1/2
f 105/1/2 110/1/2 111/1/2
f 111/1/2 110/1/2 112/1/2
f 113/2/2 114/2/2 115/2/2
f 115/2/2 114/2/2 116/2/2
f 117/2/2 118/2/2 119/2/2
f 119/2/2 118/2/2 120/2/2
f 123/1/3 122/1/3 121/1/3
f 124/1/3 122/1/3 123/1/3
f 127/1/3 126/1/3 125/1/3
f 128/1/3 126/1/3 127/1/3
f 131/1/3 130/1/3 129/1/3
f 132/1/3 130/1/3 131/1/3
f 135/1/3 134/1/3 133/1/3
f 136/1/3 134/1/3 135/1/3
f 139/1/3 138/1/3 137/1/3
f 140/1/3 138/1/3 139/1/3
f 143/1/3 142/1/3 141/1/3
f 144/1/3 142/1/3 143/1/3
f 147/1/3 146/1/3 145/1/3
f 148/1/3 146/1/3 147/1/3
f 153/2/3 150/2/3 149/2/3
f 154/2/3 150/2/3 153/2/3
f 155/2/3 152/2/3 151/2/3
f 156/2/3 152/2/3 155/2/3
f 161/2/3 158/2/3 157/2/3
f 162/2/3 158/2/3 161/2/3
f 163/2/3 160/2/3 159/2/3
f 164/2/3 160/2/3 163/2/3
f 169/2/3 166/2/3 165/2/3
f 170/2/3 166/2/3 169/2/3
f 171/2/3 168/2/3 167/2/3
f 172/2/3 168/2/3 171/2/3
f 177/2/3 174/2/3 173/2/3
f 178/2/3 174/2/3 177/2/3
f 179/2/3 176/2/3 175/2/3
f 180/2/3 176/2/3 179/2/3
f 185/2/3 182/2/3 181/2/3
f 186/2/3 182/2/3 185/2/3
f 187/2/3 184/2/3 183/2/3
f 188/2/3 184/2/3 187/2/3
f 193/2/3 190/2/3 189/2/3
f 194/2/3 190/2/3 193/2/3
f 195/2/3 192/2/3 191/2/3
f 196/2/3 192/2/3 195/2/3
f 201/2/3 198/2/3 197/2/3
f 202/2/3 198/2/3 201/2/3
f 203/2/3 200/2/3 199/2/3
f 204/2/3 200/2/3 203/2/3
f 205/1/4 206/1/4 211/1/4
f 211/1/4 206/1/4 212/1/4
f 207/1/4 208/1/4 213/1/4
f 213/1/4 208/1/4 214/1/4
f 209/1/4 210/1/4 215/1/4
f 215/1/4 210/1/4 216/1/4
f 217/1/4 218/1/4 223/1/4
f 223/1/4 218/1/4 224/1/4
f 219/1/4 220/1/4 225/1/4
f 225/1/4 220/1/4 226/1/4
f 221/1/4 222/1/4 227/1/4
f 227/1/4 222/1/4 228/1/4
f 229/1/4 230/1/4 235/1/4
f 235/1/4 230/1/4 236/1/4
f 231/1/4 232/1/4 237/1/4
f 237/1/4 232/1/4 238/1/4
f 233/1/4 234/1/4 239/1/4
f 239/1/4 234/1/4 240/1/4
f 241/1/4 242/1/4 247/1/4
f 247/1/4 242/1/4 248/1/4
f 243/1/4 244/1/4 249/1/4
f 249/1/4 244/1/4 250/1/4
f 245/1/4 246/1/4 251/1/4
f 251/1/4 246/1/4 252/1/4
f 253/1/4 254/1/4 259/1/4
f 259/1/4 254/1/4 260/1/4
f 255/1/4 256/1/4 261/1/4
f 261/1/4 256/1/4 262/1/4
f 257/1/4 258/1/4 263/1/4
f 263/1/4 258/1/4 264/1/4
f 265/1/4 266/1/4 271/1/4
f 271/1/4 266/1/4 272/1/4
f 267/1/4 268/1/4 273/1/4
f 273/1/4 268/1/4 274/1/4
f 269/1/4 270/1/4 275/1/4
f 275/1/4 270/1/4 276/1/4
f 277/2/4 278/2/4 281/2/4
f 281/2/4 278/2/4 282/2/4
f 279/2/4 280/2/4 283/2/4
f 283/2/4 280/2/4 284/2/4
f 285/1/4 286/1/4 287/1/4
f 287/1/4 286/1/4 288/1/4
f 303/1/5 292/1/5 291/1/5
f 304/1/5 292/1/5 303/1/5
f 305/1/5 294/1/5 293/1/5
f 306/1/5 294/1/5 305/1/5
f 307/1/5 296/1/5 295/1/5
f 308/1/5 296/1/5 307/1/5
f 309/1/5 298/1/5 297/1/5
f 310/1/5 298/1/5 309/1/5
f 311/1/5 300/1/5 299/1/5
f 312/1/5 300/1/5 311/1/5
f 313/1/5 302/1/5 301/1/5
f 314/1/5 302/1/5 313/1/5
f 315/1/5 290/1/5 289/1/5
f 316/1/5 290/1/5 315/1/5
f 331/2/5 318/2/5 317/2/5
f 331/2/5 330/2/5 329/2/5
f 331/2/5 329/2/5 328/2/5
f 331/2/5 328/2/5 327/2/5
f 331/2/5 327/2/5 326/2/5
f 331/2/5 326/2/5 325/2/5
f 331/2/5 325/2/5 324/2/5
f 331/2/5 324/2/5 323/2/5
f 331/2/5 323/2/5 322/2/5
f 331/2/5 322/2/5 321/2/5
f 331/2/5 321/2/5 320/2/5
f 331/2/5 320/2/5 319/2/5
f 331/2/5 319/2/5 318/2/5
f 332/2/5 330/2/5 331/2/5
f 347/2/5 334/2/5 333/2/5
f 347/2/5 346/2/5 345/2/5
f 347/2/5 345/2/5 344/2/5
f 347/2/5 344/2/5 343/2/5
f 347/2/5 343/2/5 342/2/5
f 347/2/5 342/2/5 341/2/5
f 347/2/5 341/2/5 340/2/5
f 347/2/5 340/2/5 339/2/5
f 347/2/5 339/2/5 338/2/5
f 347/2/5 338/2/5 337/2/5
f 347/2/5 337/2/5 336/2/5
f 347/2/5 336/2/5 335/2/5
f 347/2/5 335/2/5 334/2/5
f 348/2/5 346/2/5 347/2/5
f 349/2/6 350/2/6 363/2/6
f 361/2/6 362/2/6 363/2/6
f 360/2/6 361/2/6 363/2/6
f 359/2/6 360/2/6 363/2/6
f 358/2/6 359/2/6 363/2/6
f 357/2/6 358/2/6 363/2/6
f 356/2/6 357/2/6 363/2/6
f 355/2/6 356/2/6 363/2/6
f 354/2/6 355/2/6 363/2/6
f 353/2/6 354/2/6 363/2/6
f 352/2/6 353/2/6 363/2/6
f 351/2/6 352/2/6 363/2/6
f 350/2/6 351/2/6 363/2/6
f 363/2/6 362/2/6 364/2/6
f 365/2/6 366/2/6 379/2/6
f 377/2/6 378/2/6 379/2/6
f 376/2/6 377/2/6 379/2/6
f 375/2/6 376/2/6 379/2/6
f 374/2/6 375/2/6 379/2/6
f 373/2/6 374/2/6 379/2/6
f 372/2/6 373/2/6 379/2/6
f 371/2/6 372/2/6 379/2/6
f 370/2/6 371/2/6 379/2/6
f 369/2/6 370/2/6 379/2/6
f 368/2/6 369/2/6 379/2/6
f 367/2/6 368/2/6 379/2/6
f 366/2/6 367/2/6 379/2/6
f 379/2/6 378/2/6 380/2/6
f 381/1/6 382/1/6 393/1/6
f 393/1/6 382/1/6 394/1/6
f 383/1/6 384/1/6 395/1/6
f 395/1/6 384/1/6 396/1/6
f 385/1/6 386/1/6 397/1/6
f 397/1/6 386/1/6 398/1/6
f 387/1/6 388/1/6 399/1/6
f 399/1/6 388/1/6 400/1/6
f 389/1/6 390/1/6 401/1/6
f 401/1/6 390/1/6 402/1/6
f 391/1/6 392/1/6 403/1/6
f 403/1/6 392/1/6 404/1/6
f 405/1/6 406/1/6 407/1/6
f 407/1/6 406/1/6 408/1/6
