# MagicaVoxel @ Ephtracy

# group
o 

# material
mtllib monkey.mtl
usemtl palette

# normals
vn -1 0 0
vn 1 0 0
vn 0 0 1
vn 0 0 -1
vn 0 -1 0
vn 0 1 0

# texcoords
vt 0.0371094 0.5
vt 0.396484 0.5
vt 0.994141 0.5

# verts
v -1 0 -0.3
v -1 0 -0.4
v -1 0.7 -0.3
v -1 0.7 -0.4
v -0.7 1 -0.2
v -0.7 1 -0.3
v -0.7 1.2 -0.2
v -0.7 1.2 -0.3
v -0.6 0.4 -0.3
v -0.6 0.4 -0.4
v -0.6 0.6 -0.3
v -0.6 0.6 -0.4
v -0.6 0.8 -0.3
v -0.6 0.8 -0.6
v -0.6 1 -0.3
v -0.6 1.2 -0.3
v -0.6 1.4 -0.3
v -0.6 1.4 -0.6
v -0.5 0.8 -0.2
v -0.5 0.8 -0.3
v -0.5 0.8 -0.6
v -0.5 0.8 -0.7
v -0.5 0.9 -0.2
v -0.5 0.9 -0.3
v -0.5 1 -0.7
v -0.5 1 -0.8
v -0.5 1.2 -0.7
v -0.5 1.2 -0.8
v -0.5 1.3 -0.2
v -0.5 1.3 -0.3
v -0.5 1.4 -0.2
v -0.5 1.4 -0.3
v -0.5 1.4 -0.6
v -0.5 1.4 -0.7
v -0.4 0 -0.1
v -0.4 0 -0.3
v -0.4 0 -0.4
v -0.4 0 -0.7
v -0.4 0.1 -0.3
v -0.4 0.1 -0.4
v -0.4 0.8 -0.1
v -0.4 0.8 -0.2
v -0.4 0.8 -0.7
v -0.2 0.8 -0.2
v -0.2 0.8 -0.3
v -0.2 0.9 -0.3
v -0.2 1.1 -0.2
v -0.2 1.1 -0.3
v -0.9 0.1 -0.3
v -0.9 0.1 -0.4
v -0.9 0.6 -0.3
v -0.9 0.6 -0.4
v -0.6 1 -0.2
v -0.6 1 -0.3
v -0.6 1.2 -0.2
v -0.6 1.2 -0.3
v -0.5 0.4 -0.3
v -0.5 0.4 -0.4
v -0.5 0.7 -0.3
v -0.5 0.7 -0.4
v -0.4 0.8 -0.6
v -0.4 0.8 -0.7
v -0.4 1 -0.7
v -0.4 1 -0.8
v -0.4 1.2 -0.7
v -0.4 1.2 -0.8
v -0.4 1.4 -0.6
v -0.4 1.4 -0.7
v -0.3 0.8 -0.2
v -0.3 0.8 -0.3
v -0.3 0.9 -0.2
v -0.3 0.9 -0.3
v -0.3 1.1 -0.2
v -0.3 1.1 -0.3
v -0.3 1.3 -0.2
v -0.3 1.3 -0.3
v -0.3 1.4 -0.2
v -0.3 1.4 -0.3
v -0.2 0 -0.2
v -0.2 0 -0.6
v -0.2 0.1 -0.1
v -0.2 0.1 -0.2
v -0.2 0.1 -0.6
v -0.2 0.1 -0.7
v -0.2 0.6 -0.1
v -0.2 0.6 -0.2
v -0.2 0.6 -0.6
v -0.2 0.6 -0.7
v -0.2 0.7 -0.1
v -0.2 0.7 -0.2
v -0.2 0.7 -0.6
v -0.2 0.7 -0.7
v -0.2 0.8 -0.1
v -0.2 0.8 -0.2
v -0.2 0.8 -0.4
v -0.2 0.8 -0.5
v -0.2 0.8 -0.6
v -0.2 0.8 -0.7
v -0.2 0.9 -0.4
v -0.2 0.9 -0.5
v -0.2 1.1 -0.3
v -0.2 1.1 -0.4
v -0.2 1.1 -0.5
v -0.2 1.3 -0.3
v -0.2 1.3 -0.5
v -0.2 1.4 -0.3
v -0.2 1.4 -0.5
v -0.0999999 0.8 -0.5
v -0.0999999 0.8 -0.6
v -0.0999999 0.9 -0.5
v -0.0999999 0.9 -0.6
v -0.0999999 1.1 -0.5
v -0.0999999 1.1 -0.6
v -0.0999999 1.3 -0.5
v -0.0999999 1.3 -0.6
v -0.0999999 1.4 -0.5
v -0.0999999 1.4 -0.6
v 1.19209e-07 0.8 -0.2
v 1.19209e-07 0.8 -0.4
v 1.19209e-07 1.1 -0.2
v 1.19209e-07 1.1 -0.4
v 0.3 0 -0.1
v 0.3 0 -0.2
v 0.3 0 -0.6
v 0.3 0 -0.7
v 0.3 0.1 -0.1
v 0.3 0.1 -0.2
v 0.3 0.1 -0.6
v 0.3 0.1 -0.7
v 0.3 0.6 -0.1
v 0.3 0.6 -0.2
v 0.3 0.6 -0.6
v 0.3 0.6 -0.7
v 0.3 0.7 -0.1
v 0.3 0.7 -0.2
v 0.3 0.7 -0.6
v 0.3 0.7 -0.7
v -0.4 0 -0.1
v -0.4 0.8 -0.1
v -0.2 0.1 -0.1
v -0.2 0.6 -0.1
v -0.2 0.7 -0.1
v -0.2 0.8 -0.1
v 0.1 0 -0.1
v 0.1 0.1 -0.1
v 0.1 0.6 -0.1
v 0.1 0.7 -0.1
v 0.3 0 -0.1
v 0.3 0.1 -0.1
v 0.3 0.6 -0.1
v 0.3 0.7 -0.1
v -0.7 1 -0.2
v -0.7 1.2 -0.2
v -0.6 1 -0.2
v -0.6 1.2 -0.2
v -0.5 0.8 -0.2
v -0.5 0.9 -0.2
v -0.5 1.3 -0.2
v -0.5 1.4 -0.2
v -0.4 0.8 -0.2
v -0.4 1.1 -0.2
v -0.4 1.3 -0.2
v -0.3 0.8 -0.2
v -0.3 0.9 -0.2
v -0.3 1.1 -0.2
v -0.3 1.3 -0.2
v -0.3 1.4 -0.2
v -0.2 0.8 -0.2
v -0.2 1.1 -0.2
v 1.19209e-07 0.8 -0.2
v 1.19209e-07 1.1 -0.2
v -1 0 -0.3
v -1 0.7 -0.3
v -0.9 0.1 -0.3
v -0.9 0.6 -0.3
v -0.6 0.4 -0.3
v -0.6 0.6 -0.3
v -0.6 0.8 -0.3
v -0.6 1 -0.3
v -0.6 1.2 -0.3
v -0.6 1.4 -0.3
v -0.5 0.4 -0.3
v -0.5 0.7 -0.3
v -0.5 0.8 -0.3
v -0.5 0.9 -0.3
v -0.5 1.3 -0.3
v -0.5 1.4 -0.3
v -0.4 0 -0.3
v -0.4 0.1 -0.3
v -0.3 0.8 -0.3
v -0.3 0.9 -0.3
v -0.3 1.1 -0.3
v -0.3 1.3 -0.3
v -0.3 1.4 -0.3
v -0.2 0.8 -0.3
v -0.2 0.9 -0.3
v -0.2 1.1 -0.3
v -0.2 1.3 -0.3
v -0.2 1.4 -0.3
v -0.2 0.8 -0.5
v -0.2 0.9 -0.5
v -0.2 1.1 -0.5
v -0.2 1.3 -0.5
v -0.2 1.4 -0.5
v -0.0999999 0.8 -0.5
v -0.0999999 0.9 -0.5
v -0.0999999 1.1 -0.5
v -0.0999999 1.3 -0.5
v -0.0999999 1.4 -0.5
v -0.2 0 -0.6
v -0.2 0.1 -0.6
v -0.2 0.6 -0.6
v -0.2 0.7 -0.6
v 0.1 0 -0.6
v 0.1 0.1 -0.6
v 0.1 0.6 -0.6
v 0.1 0.7 -0.6
v 0.3 0 -0.6
v 0.3 0.1 -0.6
v 0.3 0.6 -0.6
v 0.3 0.7 -0.6
v -0.2 0 -0.2
v -0.2 0.1 -0.2
v -0.2 0.6 -0.2
v -0.2 0.7 -0.2
v 0.1 0 -0.2
v 0.1 0.1 -0.2
v 0.1 0.6 -0.2
v 0.1 0.7 -0.2
v 0.3 0 -0.2
v 0.3 0.1 -0.2
v 0.3 0.6 -0.2
v 0.3 0.7 -0.2
v -0.7 1 -0.3
v -0.7 1.2 -0.3
v -0.6 1 -0.3
v -0.6 1.2 -0.3
v -1 0 -0.4
v -1 0.7 -0.4
v -0.9 0.1 -0.4
v -0.9 0.6 -0.4
v -0.6 0.4 -0.4
v -0.6 0.6 -0.4
v -0.5 0.4 -0.4
v -0.5 0.7 -0.4
v -0.4 0 -0.4
v -0.4 0.1 -0.4
v -0.2 0.8 -0.4
v -0.2 0.9 -0.4
v -0.2 1.1 -0.4
v 1.19209e-07 0.8 -0.4
v 1.19209e-07 1.1 -0.4
v -0.6 0.8 -0.6
v -0.6 1.4 -0.6
v -0.5 0.8 -0.6
v -0.5 1.4 -0.6
v -0.4 0.8 -0.6
v -0.4 1.4 -0.6
v -0.3 0.9 -0.6
v -0.3 1.3 -0.6
v -0.2 0.8 -0.6
v -0.2 1.1 -0.6
v -0.2 1.3 -0.6
v -0.0999999 0.8 -0.6
v -0.0999999 0.9 -0.6
v -0.0999999 1.1 -0.6
v -0.0999999 1.3 -0.6
v -0.0999999 1.4 -0.6
v -0.5 0.8 -0.7
v -0.5 1 -0.7
v -0.5 1.2 -0.7
v -0.5 1.4 -0.7
v -0.4 0 -0.7
v -0.4 0.8 -0.7
v -0.4 1 -0.7
v -0.4 1.2 -0.7
v -0.4 1.4 -0.7
v -0.2 0.1 -0.7
v -0.2 0.6 -0.7
v -0.2 0.7 -0.7
v -0.2 0.8 -0.7
v 0.1 0 -0.7
v 0.1 0.1 -0.7
v 0.1 0.6 -0.7
v 0.1 0.7 -0.7
v 0.3 0 -0.7
v 0.3 0.1 -0.7
v 0.3 0.6 -0.7
v 0.3 0.7 -0.7
v -0.5 1 -0.8
v -0.5 1.2 -0.8
v -0.4 1 -0.8
v -0.4 1.2 -0.8
v -0.4 0 -0.1
v 0.1 0 -0.1
v 0.3 0 -0.1
v -0.2 0 -0.2
v 0.1 0 -0.2
v 0.3 0 -0.2
v -1 0 -0.3
v -0.4 0 -0.3
v -1 0 -0.4
v -0.4 0 -0.4
v -0.2 0 -0.6
v 0.1 0 -0.6
v 0.3 0 -0.6
v -0.4 0 -0.7
v 0.1 0 -0.7
v 0.3 0 -0.7
v -0.6 0.4 -0.3
v -0.5 0.4 -0.3
v -0.6 0.4 -0.4
v -0.5 0.4 -0.4
v -0.2 0.6 -0.1
v 0.1 0.6 -0.1
v 0.3 0.6 -0.1
v -0.2 0.6 -0.2
v 0.1 0.6 -0.2
v 0.3 0.6 -0.2
v -0.9 0.6 -0.3
v -0.6 0.6 -0.3
v -0.9 0.6 -0.4
v -0.6 0.6 -0.4
v -0.2 0.6 -0.6
v 0.1 0.6 -0.6
v 0.3 0.6 -0.6
v -0.2 0.6 -0.7
v 0.1 0.6 -0.7
v 0.3 0.6 -0.7
v -0.5 0.8 -0.2
v -0.4 0.8 -0.2
v -0.2 0.8 -0.2
v 1.19209e-07 0.8 -0.2
v -0.6 0.8 -0.3
v -0.5 0.8 -0.3
v -0.2 0.8 -0.4
v 1.19209e-07 0.8 -0.4
v -0.2 0.8 -0.5
v -0.0999999 0.8 -0.5
v -0.6 0.8 -0.6
v -0.5 0.8 -0.6
v -0.2 0.8 -0.6
v -0.0999999 0.8 -0.6
v -0.5 0.8 -0.7
v -0.4 0.8 -0.7
v -0.7 1 -0.2
v -0.6 1 -0.2
v -0.7 1 -0.3
v -0.6 1 -0.3
v -0.5 1 -0.7
v -0.4 1 -0.7
v -0.5 1 -0.8
v -0.4 1 -0.8
v -0.2 0.1 -0.1
v 0.1 0.1 -0.1
v 0.3 0.1 -0.1
v -0.2 0.1 -0.2
v 0.1 0.1 -0.2
v 0.3 0.1 -0.2
v -0.9 0.1 -0.3
v -0.4 0.1 -0.3
v -0.9 0.1 -0.4
v -0.4 0.1 -0.4
v -0.2 0.1 -0.6
v 0.1 0.1 -0.6
v 0.3 0.1 -0.6
v -0.2 0.1 -0.7
v 0.1 0.1 -0.7
v 0.3 0.1 -0.7
v -0.2 0.7 -0.1
v 0.1 0.7 -0.1
v 0.3 0.7 -0.1
v -0.2 0.7 -0.2
v 0.1 0.7 -0.2
v 0.3 0.7 -0.2
v -1 0.7 -0.3
v -0.5 0.7 -0.3
v -1 0.7 -0.4
v -0.5 0.7 -0.4
v -0.2 0.7 -0.6
v 0.1 0.7 -0.6
v 0.3 0.7 -0.6
v -0.2 0.7 -0.7
v 0.1 0.7 -0.7
v 0.3 0.7 -0.7
v -0.4 0.8 -0.1
v -0.2 0.8 -0.1
v -0.4 0.8 -0.2
v -0.3 0.8 -0.2
v -0.2 0.8 -0.2
v -0.3 0.8 -0.3
v -0.2 0.8 -0.3
v -0.4 0.8 -0.6
v -0.2 0.8 -0.6
v -0.4 0.8 -0.7
v -0.2 0.8 -0.7
v -0.2 1.1 -0.2
v 1.19209e-07 1.1 -0.2
v -0.2 1.1 -0.3
v -0.2 1.1 -0.4
v 1.19209e-07 1.1 -0.4
v -0.7 1.2 -0.2
v -0.6 1.2 -0.2
v -0.7 1.2 -0.3
v -0.6 1.2 -0.3
v -0.5 1.2 -0.7
v -0.4 1.2 -0.7
v -0.5 1.2 -0.8
v -0.4 1.2 -0.8
v -0.5 1.4 -0.2
v -0.3 1.4 -0.2
v -0.6 1.4 -0.3
v -0.5 1.4 -0.3
v -0.3 1.4 -0.3
v -0.2 1.4 -0.3
v -0.2 1.4 -0.5
v -0.0999999 1.4 -0.5
v -0.6 1.4 -0.6
v -0.5 1.4 -0.6
v -0.4 1.4 -0.6
v -0.0999999 1.4 -0.6
v -0.5 1.4 -0.7
v -0.4 1.4 -0.7

# faces
f 3/2/1 2/2/1 1/2/1
f 4/2/1 2/2/1 3/2/1
f 7/1/1 6/1/1 5/1/1
f 8/1/1 6/1/1 7/1/1
f 11/2/1 10/2/1 9/2/1
f 12/2/1 10/2/1 11/2/1
f 15/2/1 14/2/1 13/2/1
f 16/2/1 14/2/1 15/2/1
f 17/2/1 14/2/1 16/2/1
f 18/2/1 14/2/1 17/2/1
f 23/2/1 20/2/1 19/2/1
f 24/2/1 20/2/1 23/2/1
f 25/2/1 22/2/1 21/2/1
f 27/2/1 25/2/1 21/2/1
f 27/1/1 26/1/1 25/1/1
f 28/1/1 26/1/1 27/1/1
f 29/1/1 24/1/1 23/1/1
f 30/1/1 24/1/1 29/1/1
f 31/2/1 30/2/1 29/2/1
f 32/2/1 30/2/1 31/2/1
f 33/2/1 27/2/1 21/2/1
f 34/2/1 27/2/1 33/2/1
f 39/2/1 36/2/1 35/2/1
f 40/2/1 38/2/1 37/2/1
f 41/2/1 39/2/1 35/2/1
f 41/2/1 40/2/1 39/2/1
f 42/2/1 40/2/1 41/2/1
f 43/2/1 38/2/1 40/2/1
f 43/2/1 40/2/1 42/2/1
f 46/1/1 45/1/1 44/1/1
f 47/1/1 46/1/1 44/1/1
f 48/1/1 46/1/1 47/1/1
f 49/2/2 50/2/2 51/2/2
f 51/2/2 50/2/2 52/2/2
f 53/1/2 54/1/2 55/1/2
f 55/1/2 54/1/2 56/1/2
f 57/2/2 58/2/2 59/2/2
f 59/2/2 58/2/2 60/2/2
f 61/2/2 62/2/2 63/2/2
f 61/2/2 63/2/2 65/2/2
f 63/1/2 64/1/2 65/1/2
f 65/1/2 64/1/2 66/1/2
f 61/2/2 65/2/2 67/2/2
f 67/2/2 65/2/2 68/2/2
f 69/2/2 70/2/2 71/2/2
f 71/2/2 70/2/2 72/2/2
f 71/1/2 72/1/2 73/1/2
f 73/1/2 72/1/2 74/1/2
f 73/3/2 74/3/2 75/3/2
f 75/3/2 74/3/2 76/3/2
f 75/2/2 76/2/2 77/2/2
f 77/2/2 76/2/2 78/2/2
f 79/2/2 80/2/2 82/2/2
f 82/2/2 80/2/2 83/2/2
f 81/2/2 82/2/2 85/2/2
f 83/2/2 84/2/2 85/2/2
f 82/2/2 83/2/2 85/2/2
f 85/2/2 84/2/2 86/2/2
f 86/2/2 84/2/2 87/2/2
f 87/2/2 84/2/2 88/2/2
f 86/2/2 87/2/2 90/2/2
f 90/2/2 87/2/2 91/2/2
f 89/2/2 90/2/2 93/2/2
f 91/2/2 92/2/2 93/2/2
f 90/2/2 91/2/2 93/2/2
f 93/2/2 92/2/2 94/2/2
f 94/2/2 92/2/2 95/2/2
f 95/2/2 92/2/2 96/2/2
f 96/2/2 92/2/2 97/2/2
f 97/2/2 92/2/2 98/2/2
f 95/2/2 96/2/2 99/2/2
f 99/2/2 96/2/2 100/2/2
f 99/1/2 100/1/2 102/1/2
f 102/1/2 100/1/2 103/1/2
f 101/1/2 102/1/2 104/1/2
f 102/1/2 103/1/2 104/1/2
f 104/1/2 103/1/2 105/1/2
f 104/2/2 105/2/2 106/2/2
f 106/2/2 105/2/2 107/2/2
f 108/2/2 109/2/2 110/2/2
f 110/2/2 109/2/2 111/2/2
f 110/1/2 111/1/2 112/1/2
f 112/1/2 111/1/2 113/1/2
f 112/3/2 113/3/2 114/3/2
f 114/3/2 113/3/2 115/3/2
f 114/2/2 115/2/2 116/2/2
f 116/2/2 115/2/2 117/2/2
f 118/1/2 119/1/2 120/1/2
f 120/1/2 119/1/2 121/1/2
f 122/1/2 123/1/2 126/1/2
f 126/1/2 123/1/2 127/1/2
f 124/1/2 125/1/2 128/1/2
f 128/1/2 125/1/2 129/1/2
f 130/1/2 131/1/2 134/1/2
f 134/1/2 131/1/2 135/1/2
f 132/1/2 133/1/2 136/1/2
f 136/1/2 133/1/2 137/1/2
f 140/2/3 139/2/3 138/2/3
f 141/2/3 139/2/3 140/2/3
f 142/2/3 139/2/3 141/2/3
f 143/2/3 139/2/3 142/2/3
f 144/2/3 140/2/3 138/2/3
f 145/2/3 140/2/3 144/2/3
f 146/2/3 142/2/3 141/2/3
f 147/2/3 142/2/3 146/2/3
f 148/1/3 145/1/3 144/1/3
f 149/1/3 145/1/3 148/1/3
f 150/1/3 147/1/3 146/1/3
f 151/1/3 147/1/3 150/1/3
f 154/1/3 153/1/3 152/1/3
f 155/1/3 153/1/3 154/1/3
f 160/2/3 157/2/3 156/2/3
f 161/1/3 158/1/3 157/1/3
f 162/2/3 159/2/3 158/2/3
f 162/1/3 158/1/3 161/1/3
f 163/2/3 157/2/3 160/2/3
f 164/1/3 161/1/3 157/1/3
f 164/2/3 157/2/3 163/2/3
f 165/3/3 162/3/3 161/3/3
f 165/1/3 161/1/3 164/1/3
f 166/2/3 159/2/3 162/2/3
f 166/3/3 162/3/3 165/3/3
f 167/2/3 159/2/3 166/2/3
f 170/1/3 169/1/3 168/1/3
f 171/1/3 169/1/3 170/1/3
f 174/2/3 173/2/3 172/2/3
f 175/2/3 173/2/3 174/2/3
f 177/2/3 173/2/3 175/2/3
f 182/2/3 177/2/3 176/2/3
f 183/2/3 173/2/3 177/2/3
f 183/2/3 177/2/3 182/2/3
f 184/2/3 181/2/3 180/2/3
f 184/2/3 179/2/3 178/2/3
f 184/2/3 180/2/3 179/2/3
f 185/2/3 181/2/3 184/2/3
f 186/2/3 181/2/3 185/2/3
f 187/2/3 181/2/3 186/2/3
f 188/2/3 174/2/3 172/2/3
f 189/2/3 174/2/3 188/2/3
f 195/2/3 191/2/3 190/2/3
f 196/1/3 192/1/3 191/1/3
f 196/2/3 191/2/3 195/2/3
f 196/1/3 193/1/3 192/1/3
f 197/1/3 193/1/3 196/1/3
f 198/2/3 194/2/3 193/2/3
f 198/1/3 193/1/3 197/1/3
f 199/2/3 194/2/3 198/2/3
f 205/2/3 201/2/3 200/2/3
f 206/1/3 202/1/3 201/1/3
f 206/2/3 201/2/3 205/2/3
f 207/3/3 203/3/3 202/3/3
f 207/1/3 202/1/3 206/1/3
f 208/2/3 204/2/3 203/2/3
f 208/3/3 203/3/3 207/3/3
f 209/2/3 204/2/3 208/2/3
f 214/2/3 211/2/3 210/2/3
f 215/2/3 211/2/3 214/2/3
f 216/2/3 213/2/3 212/2/3
f 217/2/3 213/2/3 216/2/3
f 218/1/3 215/1/3 214/1/3
f 219/1/3 215/1/3 218/1/3
f 220/1/3 217/1/3 216/1/3
f 221/1/3 217/1/3 220/1/3
f 222/2/4 223/2/4 226/2/4
f 226/2/4 223/2/4 227/2/4
f 224/2/4 225/2/4 228/2/4
f 228/2/4 225/2/4 229/2/4
f 226/1/4 227/1/4 230/1/4
f 230/1/4 227/1/4 231/1/4
f 228/1/4 229/1/4 232/1/4
f 232/1/4 229/1/4 233/1/4
f 234/1/4 235/1/4 236/1/4
f 236/1/4 235/1/4 237/1/4
f 238/2/4 239/2/4 240/2/4
f 240/2/4 239/2/4 241/2/4
f 241/2/4 239/2/4 243/2/4
f 242/2/4 243/2/4 244/2/4
f 243/2/4 239/2/4 245/2/4
f 244/2/4 243/2/4 245/2/4
f 238/2/4 240/2/4 246/2/4
f 246/2/4 240/2/4 247/2/4
f 248/1/4 249/1/4 251/1/4
f 249/1/4 250/1/4 251/1/4
f 251/1/4 250/1/4 252/1/4
f 253/2/4 254/2/4 255/2/4
f 255/2/4 254/2/4 256/2/4
f 257/2/4 258/2/4 259/2/4
f 259/2/4 258/2/4 260/2/4
f 257/2/4 259/2/4 261/2/4
f 259/1/4 260/1/4 262/1/4
f 260/2/4 258/2/4 263/2/4
f 262/1/4 260/1/4 263/1/4
f 261/2/4 259/2/4 264/2/4
f 259/1/4 262/1/4 265/1/4
f 264/2/4 259/2/4 265/2/4
f 262/3/4 263/3/4 266/3/4
f 265/1/4 262/1/4 266/1/4
f 263/2/4 258/2/4 267/2/4
f 266/3/4 263/3/4 267/3/4
f 267/2/4 258/2/4 268/2/4
f 269/2/4 270/2/4 274/2/4
f 274/2/4 270/2/4 275/2/4
f 271/2/4 272/2/4 276/2/4
f 276/2/4 272/2/4 277/2/4
f 273/2/4 274/2/4 278/2/4
f 278/2/4 274/2/4 279/2/4
f 279/2/4 274/2/4 280/2/4
f 280/2/4 274/2/4 281/2/4
f 273/2/4 278/2/4 282/2/4
f 282/2/4 278/2/4 283/2/4
f 279/2/4 280/2/4 284/2/4
f 284/2/4 280/2/4 285/2/4
f 282/1/4 283/1/4 286/1/4
f 286/1/4 283/1/4 287/1/4
f 284/1/4 285/1/4 288/1/4
f 288/1/4 285/1/4 289/1/4
f 290/1/4 291/1/4 292/1/4
f 292/1/4 291/1/4 293/1/4
f 297/2/5 295/2/5 294/2/5
f 298/1/5 296/1/5 295/1/5
f 298/2/5 295/2/5 297/2/5
f 299/1/5 296/1/5 298/1/5
f 301/2/5 297/2/5 294/2/5
f 302/2/5 301/2/5 300/2/5
f 303/2/5 297/2/5 301/2/5
f 303/2/5 301/2/5 302/2/5
f 304/2/5 297/2/5 303/2/5
f 307/2/5 304/2/5 303/2/5
f 307/2/5 305/2/5 304/2/5
f 308/1/5 306/1/5 305/1/5
f 308/2/5 305/2/5 307/2/5
f 309/1/5 306/1/5 308/1/5
f 312/2/5 311/2/5 310/2/5
f 313/2/5 311/2/5 312/2/5
f 317/2/5 315/2/5 314/2/5
f 318/1/5 316/1/5 315/1/5
f 318/2/5 315/2/5 317/2/5
f 319/1/5 316/1/5 318/1/5
f 322/2/5 321/2/5 320/2/5
f 323/2/5 321/2/5 322/2/5
f 327/2/5 325/2/5 324/2/5
f 328/1/5 326/1/5 325/1/5
f 328/2/5 325/2/5 327/2/5
f 329/1/5 326/1/5 328/1/5
f 335/2/5 331/2/5 330/2/5
f 336/1/5 333/1/5 332/1/5
f 337/1/5 333/1/5 336/1/5
f 340/2/5 335/2/5 334/2/5
f 341/2/5 331/2/5 335/2/5
f 341/2/5 335/2/5 340/2/5
f 342/2/5 339/2/5 338/2/5
f 343/2/5 339/2/5 342/2/5
f 344/2/5 331/2/5 341/2/5
f 345/2/5 331/2/5 344/2/5
f 348/1/5 347/1/5 346/1/5
f 349/1/5 347/1/5 348/1/5
f 352/1/5 351/1/5 350/1/5
f 353/1/5 351/1/5 352/1/5
f 354/2/6 355/2/6 357/2/6
f 355/1/6 356/1/6 358/1/6
f 357/2/6 355/2/6 358/2/6
f 358/1/6 356/1/6 359/1/6
f 360/2/6 361/2/6 362/2/6
f 362/2/6 361/2/6 363/2/6
f 364/2/6 365/2/6 367/2/6
f 365/1/6 366/1/6 368/1/6
f 367/2/6 365/2/6 368/2/6
f 368/1/6 366/1/6 369/1/6
f 370/2/6 371/2/6 373/2/6
f 371/1/6 372/1/6 374/1/6
f 373/2/6 371/2/6 374/2/6
f 374/1/6 372/1/6 375/1/6
f 376/2/6 377/2/6 378/2/6
f 378/2/6 377/2/6 379/2/6
f 380/2/6 381/2/6 383/2/6
f 381/1/6 382/1/6 384/1/6
f 383/2/6 381/2/6 384/2/6
f 384/1/6 382/1/6 385/1/6
f 386/2/6 387/2/6 388/2/6
f 388/2/6 387/2/6 389/2/6
f 389/2/6 387/2/6 390/2/6
f 389/2/6 390/2/6 391/2/6
f 391/2/6 390/2/6 392/2/6
f 393/2/6 394/2/6 395/2/6
f 395/2/6 394/2/6 396/2/6
f 397/1/6 398/1/6 399/1/6
f 399/1/6 398/1/6 400/1/6
f 400/1/6 398/1/6 401/1/6
f 402/1/6 403/1/6 404/1/6
f 404/1/6 403/1/6 405/1/6
f 406/1/6 407/1/6 408/1/6
f 408/1/6 407/1/6 409/1/6
f 410/2/6 411/2/6 413/2/6
f 413/2/6 411/2/6 414/2/6
f 412/2/6 413/2/6 416/2/6
f 414/2/6 415/2/6 416/2/6
f 413/2/6 414/2/6 416/2/6
f 412/2/6 416/2/6 418/2/6
f 416/2/6 417/2/6 418/2/6
f 418/2/6 417/2/6 419/2/6
f 419/2/6 417/2/6 420/2/6
f 420/2/6 417/2/6 421/2/6
f 419/2/6 420/2/6 422/2/6
f 422/2/6 420/2/6 423/2/6
