# MagicaVoxel @ Ephtracy

# group
o 

# material
mtllib sunbed.mtl
usemtl palette

# normals
vn -1 0 0
vn 1 0 0
vn 0 0 1
vn 0 0 -1
vn 0 -1 0
vn 0 1 0

# texcoords
vt 0.841797 0.5
vt 0.958984 0.5
vt 0.962891 0.5

# verts
v -0.8 0.7 1.2
v -0.8 0.7 -1.9
v -0.8 0.8 0.6
v -0.8 0.8 -1.9
v -0.8 0.9 1.3
v -0.8 0.9 1.2
v -0.8 0.9 0.8
v -0.8 0.9 0.6
v -0.8 1 1.4
v -0.8 1 1.3
v -0.8 1 0.9
v -0.8 1 0.8
v -0.8 1.1 1.6
v -0.8 1.1 1.4
v -0.8 1.1 1.1
v -0.8 1.1 0.9
v -0.8 1.2 1.7
v -0.8 1.2 1.6
v -0.8 1.2 1.2
v -0.8 1.2 1.1
v -0.8 1.3 1.8
v -0.8 1.3 1.7
v -0.8 1.3 1.3
v -0.8 1.3 1.2
v -0.8 1.4 1.9
v -0.8 1.4 1.8
v -0.8 1.4 1.4
v -0.8 1.4 1.3
v -0.8 1.5 2
v -0.8 1.5 1.9
v -0.8 1.5 1.6
v -0.8 1.5 1.4
v -0.8 1.6 1.8
v -0.8 1.6 1.6
v -0.8 1.7 2
v -0.8 1.7 1.8
v -0.7 0 0.9
v -0.7 0 0.6
v -0.7 0 -1.6
v -0.7 0 -1.8
v -0.7 0.7 0.9
v -0.7 0.7 0.6
v -0.7 0.7 -1.6
v -0.7 0.7 -1.8
v 0.5 0 0.9
v 0.5 0 0.6
v 0.5 0 -1.6
v 0.5 0 -1.8
v 0.5 0.6 0.9
v 0.5 0.6 0.6
v 0.5 0.6 -1.6
v 0.5 0.6 -1.8
v -0.4 0 0.9
v -0.4 0 0.6
v -0.4 0 -1.6
v -0.4 0 -1.8
v -0.4 0.6 0.9
v -0.4 0.6 0.6
v -0.4 0.6 -1.6
v -0.4 0.6 -1.8
v 0.8 0 0.9
v 0.8 0 0.6
v 0.8 0 -1.6
v 0.8 0 -1.8
v 0.8 0.7 0.9
v 0.8 0.7 0.6
v 0.8 0.7 -1.6
v 0.8 0.7 -1.8
v 0.9 0.7 1.2
v 0.9 0.7 -1.9
v 0.9 0.8 0.6
v 0.9 0.8 -1.9
v 0.9 0.9 1.3
v 0.9 0.9 1.2
v 0.9 0.9 0.8
v 0.9 0.9 0.6
v 0.9 1 1.4
v 0.9 1 1.3
v 0.9 1 0.9
v 0.9 1 0.8
v 0.9 1.1 1.6
v 0.9 1.1 1.4
v 0.9 1.1 1.1
v 0.9 1.1 0.9
v 0.9 1.2 1.7
v 0.9 1.2 1.6
v 0.9 1.2 1.2
v 0.9 1.2 1.1
v 0.9 1.3 1.8
v 0.9 1.3 1.7
v 0.9 1.3 1.3
v 0.9 1.3 1.2
v 0.9 1.4 1.9
v 0.9 1.4 1.8
v 0.9 1.4 1.4
v 0.9 1.4 1.3
v 0.9 1.5 2
v 0.9 1.5 1.9
v 0.9 1.5 1.6
v 0.9 1.5 1.4
v 0.9 1.6 1.8
v 0.9 1.6 1.6
v 0.9 1.7 2
v 0.9 1.7 1.8
v -0.8 1.5 2
v -0.8 1.7 2
v 0.9 1.5 2
v 0.9 1.7 2
v -0.8 1.4 1.9
v -0.8 1.5 1.9
v -0.7 1.4 1.9
v -0.7 1.5 1.9
v 0.8 1.4 1.9
v 0.8 1.5 1.9
v 0.9 1.4 1.9
v 0.9 1.5 1.9
v -0.8 1.3 1.8
v -0.8 1.4 1.8
v -0.7 1.3 1.8
v -0.7 1.4 1.8
v 0.8 1.3 1.8
v 0.8 1.4 1.8
v 0.9 1.3 1.8
v 0.9 1.4 1.8
v -0.8 1.2 1.7
v -0.8 1.3 1.7
v -0.7 1.2 1.7
v -0.7 1.3 1.7
v 0.8 1.2 1.7
v 0.8 1.3 1.7
v 0.9 1.2 1.7
v 0.9 1.3 1.7
v -0.8 1.1 1.6
v -0.8 1.2 1.6
v -0.7 1.1 1.6
v -0.7 1.2 1.6
v 0.8 1.1 1.6
v 0.8 1.2 1.6
v 0.9 1.1 1.6
v 0.9 1.2 1.6
v -0.8 1 1.4
v -0.8 1.1 1.4
v -0.7 1 1.4
v -0.7 1.1 1.4
v 0.8 1 1.4
v 0.8 1.1 1.4
v 0.9 1 1.4
v 0.9 1.1 1.4
v -0.8 0.9 1.3
v -0.8 1 1.3
v -0.7 0.9 1.3
v -0.7 1 1.3
v 0.8 0.9 1.3
v 0.8 1 1.3
v 0.9 0.9 1.3
v 0.9 1 1.3
v -0.8 0.7 1.2
v -0.8 0.9 1.2
v -0.7 0.8 1.2
v -0.7 0.9 1.2
v 0.8 0.8 1.2
v 0.8 0.9 1.2
v 0.9 0.7 1.2
v 0.9 0.9 1.2
v -0.7 0 0.9
v -0.7 0.7 0.9
v -0.4 0 0.9
v -0.4 0.6 0.9
v 0.5 0 0.9
v 0.5 0.6 0.9
v 0.8 0 0.9
v 0.8 0.7 0.9
v -0.7 0 -1.6
v -0.7 0.7 -1.6
v -0.4 0 -1.6
v -0.4 0.6 -1.6
v 0.5 0 -1.6
v 0.5 0.6 -1.6
v 0.8 0 -1.6
v 0.8 0.7 -1.6
v -0.8 1.6 1.8
v -0.8 1.7 1.8
v -0.7 1.6 1.8
v 0.8 1.6 1.8
v 0.9 1.6 1.8
v 0.9 1.7 1.8
v -0.8 1.5 1.6
v -0.8 1.6 1.6
v -0.7 1.5 1.6
v -0.7 1.6 1.6
v 0.8 1.5 1.6
v 0.8 1.6 1.6
v 0.9 1.5 1.6
v 0.9 1.6 1.6
v -0.8 1.4 1.4
v -0.8 1.5 1.4
v -0.7 1.4 1.4
v -0.7 1.5 1.4
v 0.8 1.4 1.4
v 0.8 1.5 1.4
v 0.9 1.4 1.4
v 0.9 1.5 1.4
v -0.8 1.3 1.3
v -0.8 1.4 1.3
v -0.7 1.3 1.3
v -0.7 1.4 1.3
v 0.8 1.3 1.3
v 0.8 1.4 1.3
v 0.9 1.3 1.3
v 0.9 1.4 1.3
v -0.8 1.2 1.2
v -0.8 1.3 1.2
v -0.7 1.2 1.2
v -0.7 1.3 1.2
v 0.8 1.2 1.2
v 0.8 1.3 1.2
v 0.9 1.2 1.2
v 0.9 1.3 1.2
v -0.8 1.1 1.1
v -0.8 1.2 1.1
v -0.7 1.1 1.1
v -0.7 1.2 1.1
v 0.8 1.1 1.1
v 0.8 1.2 1.1
v 0.9 1.1 1.1
v 0.9 1.2 1.1
v -0.8 1 0.9
v -0.8 1.1 0.9
v -0.7 1 0.9
v -0.7 1.1 0.9
v 0.8 1 0.9
v 0.8 1.1 0.9
v 0.9 1 0.9
v 0.9 1.1 0.9
v -0.8 0.9 0.8
v -0.8 1 0.8
v -0.7 0.9 0.8
v -0.7 1 0.8
v 0.8 0.9 0.8
v 0.8 1 0.8
v 0.9 0.9 0.8
v 0.9 1 0.8
v -0.8 0.8 0.6
v -0.8 0.9 0.6
v -0.7 0 0.6
v -0.7 0.7 0.6
v -0.7 0.8 0.6
v -0.7 0.9 0.6
v -0.4 0 0.6
v -0.4 0.6 0.6
v 0.5 0 0.6
v 0.5 0.6 0.6
v 0.8 0 0.6
v 0.8 0.7 0.6
v 0.8 0.8 0.6
v 0.8 0.9 0.6
v 0.9 0.8 0.6
v 0.9 0.9 0.6
v -0.7 0 -1.8
v -0.7 0.7 -1.8
v -0.4 0 -1.8
v -0.4 0.6 -1.8
v 0.5 0 -1.8
v 0.5 0.6 -1.8
v 0.8 0 -1.8
v 0.8 0.7 -1.8
v -0.8 0.7 -1.9
v -0.8 0.8 -1.9
v 0.9 0.7 -1.9
v 0.9 0.8 -1.9
v -0.7 0 0.9
v -0.4 0 0.9
v 0.5 0 0.9
v 0.8 0 0.9
v -0.7 0 0.6
v -0.4 0 0.6
v 0.5 0 0.6
v 0.8 0 0.6
v -0.7 0 -1.6
v -0.4 0 -1.6
v 0.5 0 -1.6
v 0.8 0 -1.6
v -0.7 0 -1.8
v -0.4 0 -1.8
v 0.5 0 -1.8
v 0.8 0 -1.8
v -0.4 0.6 0.9
v 0.5 0.6 0.9
v -0.4 0.6 0.6
v 0.5 0.6 0.6
v -0.4 0.6 -1.6
v 0.5 0.6 -1.6
v -0.4 0.6 -1.8
v 0.5 0.6 -1.8
v -0.8 0.7 1.2
v 0.9 0.7 1.2
v -0.7 0.7 1.1
v 0.8 0.7 1.1
v -0.7 0.7 1
v 0.8 0.7 1
v -0.7 0.7 0.9
v 0.8 0.7 0.9
v -0.7 0.7 0.6
v 0.8 0.7 0.6
v -0.7 0.7 0.5
v 0.8 0.7 0.5
v -0.7 0.7 0.4
v 0.8 0.7 0.4
v -0.7 0.7 0.3
v 0.8 0.7 0.3
v -0.7 0.7 0.2
v 0.8 0.7 0.2
v -0.7 0.7 0.0999999
v 0.8 0.7 0.0999999
v -0.7 0.7 -2.38419e-07
v 0.8 0.7 -2.38419e-07
v -0.7 0.7 -0.1
v 0.8 0.7 -0.1
v -0.7 0.7 -0.2
v 0.8 0.7 -0.2
v -0.7 0.7 -0.3
v 0.8 0.7 -0.3
v -0.7 0.7 -0.4
v 0.8 0.7 -0.4
v -0.7 0.7 -0.5
v 0.8 0.7 -0.5
v -0.7 0.7 -0.6
v 0.8 0.7 -0.6
v -0.7 0.7 -0.7
v 0.8 0.7 -0.7
v -0.7 0.7 -0.8
v 0.8 0.7 -0.8
v -0.7 0.7 -0.9
v 0.8 0.7 -0.9
v -0.7 0.7 -1
v 0.8 0.7 -1
v -0.7 0.7 -1.1
v 0.8 0.7 -1.1
v -0.7 0.7 -1.2
v 0.8 0.7 -1.2
v -0.7 0.7 -1.3
v 0.8 0.7 -1.3
v -0.7 0.7 -1.4
v 0.8 0.7 -1.4
v -0.7 0.7 -1.5
v 0.8 0.7 -1.5
v -0.7 0.7 -1.6
v 0.8 0.7 -1.6
v -0.7 0.7 -1.8
v 0.8 0.7 -1.8
v -0.8 0.7 -1.9
v 0.9 0.7 -1.9
v -0.8 0.9 1.3
v -0.7 0.9 1.3
v 0.8 0.9 1.3
v 0.9 0.9 1.3
v -0.8 0.9 1.2
v -0.7 0.9 1.2
v 0.8 0.9 1.2
v 0.9 0.9 1.2
v -0.8 1 1.4
v -0.7 1 1.4
v 0.8 1 1.4
v 0.9 1 1.4
v -0.8 1 1.3
v -0.7 1 1.3
v 0.8 1 1.3
v 0.9 1 1.3
v -0.8 1.1 1.6
v -0.7 1.1 1.6
v 0.8 1.1 1.6
v 0.9 1.1 1.6
v -0.7 1.1 1.5
v 0.8 1.1 1.5
v -0.8 1.1 1.4
v -0.7 1.1 1.4
v 0.8 1.1 1.4
v 0.9 1.1 1.4
v -0.8 1.2 1.7
v -0.7 1.2 1.7
v 0.8 1.2 1.7
v 0.9 1.2 1.7
v -0.8 1.2 1.6
v -0.7 1.2 1.6
v 0.8 1.2 1.6
v 0.9 1.2 1.6
v -0.8 1.3 1.8
v -0.7 1.3 1.8
v 0.8 1.3 1.8
v 0.9 1.3 1.8
v -0.8 1.3 1.7
v -0.7 1.3 1.7
v 0.8 1.3 1.7
v 0.9 1.3 1.7
v -0.8 1.4 1.9
v -0.7 1.4 1.9
v 0.8 1.4 1.9
v 0.9 1.4 1.9
v -0.8 1.4 1.8
v -0.7 1.4 1.8
v 0.8 1.4 1.8
v 0.9 1.4 1.8
v -0.8 1.5 2
v 0.9 1.5 2
v -0.8 1.5 1.9
v -0.7 1.5 1.9
v 0.8 1.5 1.9
v 0.9 1.5 1.9
v -0.8 0.8 0.6
v -0.7 0.8 0.6
v 0.8 0.8 0.6
v 0.9 0.8 0.6
v -0.7 0.8 0.5
v 0.8 0.8 0.5
v -0.7 0.8 0.4
v 0.8 0.8 0.4
v -0.7 0.8 0.3
v 0.8 0.8 0.3
v -0.7 0.8 0.2
v 0.8 0.8 0.2
v -0.7 0.8 0.0999999
v 0.8 0.8 0.0999999
v -0.7 0.8 -2.38419e-07
v 0.8 0.8 -2.38419e-07
v -0.7 0.8 -0.1
v 0.8 0.8 -0.1
v -0.7 0.8 -0.2
v 0.8 0.8 -0.2
v -0.7 0.8 -0.3
v 0.8 0.8 -0.3
v -0.7 0.8 -0.4
v 0.8 0.8 -0.4
v -0.7 0.8 -0.5
v 0.8 0.8 -0.5
v -0.7 0.8 -0.6
v 0.8 0.8 -0.6
v -0.7 0.8 -0.7
v 0.8 0.8 -0.7
v -0.7 0.8 -0.8
v 0.8 0.8 -0.8
v -0.7 0.8 -0.9
v 0.8 0.8 -0.9
v -0.7 0.8 -1
v 0.8 0.8 -1
v -0.7 0.8 -1.1
v 0.8 0.8 -1.1
v -0.7 0.8 -1.2
v 0.8 0.8 -1.2
v -0.7 0.8 -1.3
v 0.8 0.8 -1.3
v -0.7 0.8 -1.4
v 0.8 0.8 -1.4
v -0.7 0.8 -1.5
v 0.8 0.8 -1.5
v -0.7 0.8 -1.6
v 0.8 0.8 -1.6
v -0.7 0.8 -1.7
v 0.8 0.8 -1.7
v -0.7 0.8 -1.8
v 0.8 0.8 -1.8
v -0.8 0.8 -1.9
v 0.9 0.8 -1.9
v -0.8 0.9 0.8
v -0.7 0.9 0.8
v 0.8 0.9 0.8
v 0.9 0.9 0.8
v -0.7 0.9 0.7
v 0.8 0.9 0.7
v -0.8 0.9 0.6
v -0.7 0.9 0.6
v 0.8 0.9 0.6
v 0.9 0.9 0.6
v -0.8 1 0.9
v -0.7 1 0.9
v 0.8 1 0.9
v 0.9 1 0.9
v -0.8 1 0.8
v -0.7 1 0.8
v 0.8 1 0.8
v 0.9 1 0.8
v -0.8 1.1 1.1
v -0.7 1.1 1.1
v 0.8 1.1 1.1
v 0.9 1.1 1.1
v -0.7 1.1 1
v 0.8 1.1 1
v -0.8 1.1 0.9
v -0.7 1.1 0.9
v 0.8 1.1 0.9
v 0.9 1.1 0.9
v -0.8 1.2 1.2
v -0.7 1.2 1.2
v 0.8 1.2 1.2
v 0.9 1.2 1.2
v -0.8 1.2 1.1
v -0.7 1.2 1.1
v 0.8 1.2 1.1
v 0.9 1.2 1.1
v -0.8 1.3 1.3
v -0.7 1.3 1.3
v 0.8 1.3 1.3
v 0.9 1.3 1.3
v -0.8 1.3 1.2
v -0.7 1.3 1.2
v 0.8 1.3 1.2
v 0.9 1.3 1.2
v -0.8 1.4 1.4
v -0.7 1.4 1.4
v 0.8 1.4 1.4
v 0.9 1.4 1.4
v -0.8 1.4 1.3
v -0.7 1.4 1.3
v 0.8 1.4 1.3
v 0.9 1.4 1.3
v -0.8 1.5 1.6
v -0.7 1.5 1.6
v 0.8 1.5 1.6
v 0.9 1.5 1.6
v -0.7 1.5 1.5
v 0.8 1.5 1.5
v -0.8 1.5 1.4
v -0.7 1.5 1.4
v 0.8 1.5 1.4
v 0.9 1.5 1.4
v -0.8 1.6 1.8
v -0.7 1.6 1.8
v 0.8 1.6 1.8
v 0.9 1.6 1.8
v -0.7 1.6 1.7
v 0.8 1.6 1.7
v -0.8 1.6 1.6
v -0.7 1.6 1.6
v 0.8 1.6 1.6
v 0.9 1.6 1.6
v -0.8 1.7 2
v 0.9 1.7 2
v -0.8 1.7 1.8
v 0.9 1.7 1.8

# faces
f 3/3/1 2/3/1 1/3/1
f 4/3/1 2/3/1 3/3/1
f 6/3/1 3/3/1 1/3/1
f 7/3/1 3/3/1 6/3/1
f 8/3/1 3/3/1 7/3/1
f 10/3/1 6/3/1 5/3/1
f 10/3/1 7/3/1 6/3/1
f 11/3/1 7/3/1 10/3/1
f 12/3/1 7/3/1 11/3/1
f 14/3/1 10/3/1 9/3/1
f 14/3/1 11/3/1 10/3/1
f 15/3/1 11/3/1 14/3/1
f 16/3/1 11/3/1 15/3/1
f 18/3/1 14/3/1 13/3/1
f 18/3/1 15/3/1 14/3/1
f 19/3/1 15/3/1 18/3/1
f 20/3/1 15/3/1 19/3/1
f 22/3/1 18/3/1 17/3/1
f 22/3/1 19/3/1 18/3/1
f 23/3/1 19/3/1 22/3/1
f 24/3/1 19/3/1 23/3/1
f 26/3/1 22/3/1 21/3/1
f 26/3/1 23/3/1 22/3/1
f 27/3/1 23/3/1 26/3/1
f 28/3/1 23/3/1 27/3/1
f 30/3/1 26/3/1 25/3/1
f 30/3/1 27/3/1 26/3/1
f 31/3/1 27/3/1 30/3/1
f 32/3/1 27/3/1 31/3/1
f 33/3/1 30/3/1 29/3/1
f 33/3/1 31/3/1 30/3/1
f 34/3/1 31/3/1 33/3/1
f 35/3/1 33/3/1 29/3/1
f 36/3/1 33/3/1 35/3/1
f 41/3/1 38/3/1 37/3/1
f 42/3/1 38/3/1 41/3/1
f 43/3/1 40/3/1 39/3/1
f 44/3/1 40/3/1 43/3/1
f 49/3/1 46/3/1 45/3/1
f 50/3/1 46/3/1 49/3/1
f 51/3/1 48/3/1 47/3/1
f 52/3/1 48/3/1 51/3/1
f 53/3/2 54/3/2 57/3/2
f 57/3/2 54/3/2 58/3/2
f 55/3/2 56/3/2 59/3/2
f 59/3/2 56/3/2 60/3/2
f 61/3/2 62/3/2 65/3/2
f 65/3/2 62/3/2 66/3/2
f 63/3/2 64/3/2 67/3/2
f 67/3/2 64/3/2 68/3/2
f 69/3/2 70/3/2 71/3/2
f 71/3/2 70/3/2 72/3/2
f 69/3/2 71/3/2 74/3/2
f 74/3/2 71/3/2 75/3/2
f 75/3/2 71/3/2 76/3/2
f 73/3/2 74/3/2 78/3/2
f 74/3/2 75/3/2 78/3/2
f 78/3/2 75/3/2 79/3/2
f 79/3/2 75/3/2 80/3/2
f 77/3/2 78/3/2 82/3/2
f 78/3/2 79/3/2 82/3/2
f 82/3/2 79/3/2 83/3/2
f 83/3/2 79/3/2 84/3/2
f 81/3/2 82/3/2 86/3/2
f 82/3/2 83/3/2 86/3/2
f 86/3/2 83/3/2 87/3/2
f 87/3/2 83/3/2 88/3/2
f 85/3/2 86/3/2 90/3/2
f 86/3/2 87/3/2 90/3/2
f 90/3/2 87/3/2 91/3/2
f 91/3/2 87/3/2 92/3/2
f 89/3/2 90/3/2 94/3/2
f 90/3/2 91/3/2 94/3/2
f 94/3/2 91/3/2 95/3/2
f 95/3/2 91/3/2 96/3/2
f 93/3/2 94/3/2 98/3/2
f 94/3/2 95/3/2 98/3/2
f 98/3/2 95/3/2 99/3/2
f 99/3/2 95/3/2 100/3/2
f 97/3/2 98/3/2 101/3/2
f 98/3/2 99/3/2 101/3/2
f 101/3/2 99/3/2 102/3/2
f 97/3/2 101/3/2 103/3/2
f 103/3/2 101/3/2 104/3/2
f 107/3/3 106/3/3 105/3/3
f 108/3/3 106/3/3 107/3/3
f 111/3/3 110/3/3 109/3/3
f 112/3/3 110/3/3 111/3/3
f 113/1/3 112/1/3 111/1/3
f 114/1/3 112/1/3 113/1/3
f 115/3/3 114/3/3 113/3/3
f 116/3/3 114/3/3 115/3/3
f 119/3/3 118/3/3 117/3/3
f 120/3/3 118/3/3 119/3/3
f 121/2/3 120/2/3 119/2/3
f 122/2/3 120/2/3 121/2/3
f 123/3/3 122/3/3 121/3/3
f 124/3/3 122/3/3 123/3/3
f 127/3/3 126/3/3 125/3/3
f 128/3/3 126/3/3 127/3/3
f 129/1/3 128/1/3 127/1/3
f 130/1/3 128/1/3 129/1/3
f 131/3/3 130/3/3 129/3/3
f 132/3/3 130/3/3 131/3/3
f 135/3/3 134/3/3 133/3/3
f 136/3/3 134/3/3 135/3/3
f 137/2/3 136/2/3 135/2/3
f 138/2/3 136/2/3 137/2/3
f 139/3/3 138/3/3 137/3/3
f 140/3/3 138/3/3 139/3/3
f 143/3/3 142/3/3 141/3/3
f 144/3/3 142/3/3 143/3/3
f 145/2/3 144/2/3 143/2/3
f 146/2/3 144/2/3 145/2/3
f 147/3/3 146/3/3 145/3/3
f 148/3/3 146/3/3 147/3/3
f 151/3/3 150/3/3 149/3/3
f 152/3/3 150/3/3 151/3/3
f 153/1/3 152/1/3 151/1/3
f 154/1/3 152/1/3 153/1/3
f 155/3/3 154/3/3 153/3/3
f 156/3/3 154/3/3 155/3/3
f 159/3/3 158/3/3 157/3/3
f 160/3/3 158/3/3 159/3/3
f 161/3/3 159/3/3 157/3/3
f 161/2/3 160/2/3 159/2/3
f 162/2/3 160/2/3 161/2/3
f 163/3/3 161/3/3 157/3/3
f 163/3/3 162/3/3 161/3/3
f 164/3/3 162/3/3 163/3/3
f 167/3/3 166/3/3 165/3/3
f 168/3/3 166/3/3 167/3/3
f 170/3/3 166/3/3 168/3/3
f 171/3/3 170/3/3 169/3/3
f 172/3/3 166/3/3 170/3/3
f 172/3/3 170/3/3 171/3/3
f 175/3/3 174/3/3 173/3/3
f 176/3/3 174/3/3 175/3/3
f 178/3/3 174/3/3 176/3/3
f 179/3/3 178/3/3 177/3/3
f 180/3/3 174/3/3 178/3/3
f 180/3/3 178/3/3 179/3/3
f 181/3/4 182/3/4 183/3/4
f 183/3/4 182/3/4 184/3/4
f 184/3/4 182/3/4 185/3/4
f 185/3/4 182/3/4 186/3/4
f 187/3/4 188/3/4 189/3/4
f 189/3/4 188/3/4 190/3/4
f 189/1/4 190/1/4 191/1/4
f 191/1/4 190/1/4 192/1/4
f 191/3/4 192/3/4 193/3/4
f 193/3/4 192/3/4 194/3/4
f 195/3/4 196/3/4 197/3/4
f 197/3/4 196/3/4 198/3/4
f 197/1/4 198/1/4 199/1/4
f 199/1/4 198/1/4 200/1/4
f 199/3/4 200/3/4 201/3/4
f 201/3/4 200/3/4 202/3/4
f 203/3/4 204/3/4 205/3/4
f 205/3/4 204/3/4 206/3/4
f 205/2/4 206/2/4 207/2/4
f 207/2/4 206/2/4 208/2/4
f 207/3/4 208/3/4 209/3/4
f 209/3/4 208/3/4 210/3/4
f 211/3/4 212/3/4 213/3/4
f 213/3/4 212/3/4 214/3/4
f 213/1/4 214/1/4 215/1/4
f 215/1/4 214/1/4 216/1/4
f 215/3/4 216/3/4 217/3/4
f 217/3/4 216/3/4 218/3/4
f 219/3/4 220/3/4 221/3/4
f 221/3/4 220/3/4 222/3/4
f 221/2/4 222/2/4 223/2/4
f 223/2/4 222/2/4 224/2/4
f 223/3/4 224/3/4 225/3/4
f 225/3/4 224/3/4 226/3/4
f 227/3/4 228/3/4 229/3/4
f 229/3/4 228/3/4 230/3/4
f 229/2/4 230/2/4 231/2/4
f 231/2/4 230/2/4 232/2/4
f 231/3/4 232/3/4 233/3/4
f 233/3/4 232/3/4 234/3/4
f 235/3/4 236/3/4 237/3/4
f 237/3/4 236/3/4 238/3/4
f 237/1/4 238/1/4 239/1/4
f 239/1/4 238/1/4 240/1/4
f 239/3/4 240/3/4 241/3/4
f 241/3/4 240/3/4 242/3/4
f 243/3/4 244/3/4 247/3/4
f 247/3/4 244/3/4 248/3/4
f 245/3/4 246/3/4 249/3/4
f 249/3/4 246/3/4 250/3/4
f 250/3/4 246/3/4 252/3/4
f 251/3/4 252/3/4 253/3/4
f 252/3/4 246/3/4 254/3/4
f 253/3/4 252/3/4 254/3/4
f 247/1/4 248/1/4 255/1/4
f 255/1/4 248/1/4 256/1/4
f 255/3/4 256/3/4 257/3/4
f 257/3/4 256/3/4 258/3/4
f 259/3/4 260/3/4 261/3/4
f 261/3/4 260/3/4 262/3/4
f 262/3/4 260/3/4 264/3/4
f 263/3/4 264/3/4 265/3/4
f 264/3/4 260/3/4 266/3/4
f 265/3/4 264/3/4 266/3/4
f 267/3/4 268/3/4 269/3/4
f 269/3/4 268/3/4 270/3/4
f 275/3/5 272/3/5 271/3/5
f 276/3/5 272/3/5 275/3/5
f 277/3/5 274/3/5 273/3/5
f 278/3/5 274/3/5 277/3/5
f 283/3/5 280/3/5 279/3/5
f 284/3/5 280/3/5 283/3/5
f 285/3/5 282/3/5 281/3/5
f 286/3/5 282/3/5 285/3/5
f 289/3/5 288/3/5 287/3/5
f 290/3/5 288/3/5 289/3/5
f 293/3/5 292/3/5 291/3/5
f 294/3/5 292/3/5 293/3/5
f 297/3/5 296/3/5 295/3/5
f 298/3/5 296/3/5 297/3/5
f 299/3/5 297/3/5 295/3/5
f 299/1/5 298/1/5 297/1/5
f 300/3/5 296/3/5 298/3/5
f 300/1/5 298/1/5 299/1/5
f 301/3/5 299/3/5 295/3/5
f 301/2/5 300/2/5 299/2/5
f 302/3/5 296/3/5 300/3/5
f 302/2/5 300/2/5 301/2/5
f 303/3/5 301/3/5 295/3/5
f 304/3/5 296/3/5 302/3/5
f 305/3/5 303/3/5 295/3/5
f 305/2/5 304/2/5 303/2/5
f 306/3/5 296/3/5 304/3/5
f 306/2/5 304/2/5 305/2/5
f 307/3/5 305/3/5 295/3/5
f 307/1/5 306/1/5 305/1/5
f 308/3/5 296/3/5 306/3/5
f 308/1/5 306/1/5 307/1/5
f 309/3/5 307/3/5 295/3/5
f 309/2/5 308/2/5 307/2/5
f 310/3/5 296/3/5 308/3/5
f 310/2/5 308/2/5 309/2/5
f 311/3/5 309/3/5 295/3/5
f 311/1/5 310/1/5 309/1/5
f 312/3/5 296/3/5 310/3/5
f 312/1/5 310/1/5 311/1/5
f 313/3/5 311/3/5 295/3/5
f 313/2/5 312/2/5 311/2/5
f 314/3/5 296/3/5 312/3/5
f 314/2/5 312/2/5 313/2/5
f 315/3/5 313/3/5 295/3/5
f 315/1/5 314/1/5 313/1/5
f 316/3/5 296/3/5 314/3/5
f 316/1/5 314/1/5 315/1/5
f 317/3/5 315/3/5 295/3/5
f 317/2/5 316/2/5 315/2/5
f 318/3/5 296/3/5 316/3/5
f 318/2/5 316/2/5 317/2/5
f 319/3/5 317/3/5 295/3/5
f 319/1/5 318/1/5 317/1/5
f 320/3/5 296/3/5 318/3/5
f 320/1/5 318/1/5 319/1/5
f 321/3/5 319/3/5 295/3/5
f 321/2/5 320/2/5 319/2/5
f 322/3/5 296/3/5 320/3/5
f 322/2/5 320/2/5 321/2/5
f 323/3/5 321/3/5 295/3/5
f 323/1/5 322/1/5 321/1/5
f 324/3/5 296/3/5 322/3/5
f 324/1/5 322/1/5 323/1/5
f 325/3/5 323/3/5 295/3/5
f 325/2/5 324/2/5 323/2/5
f 326/3/5 296/3/5 324/3/5
f 326/2/5 324/2/5 325/2/5
f 327/3/5 325/3/5 295/3/5
f 327/1/5 326/1/5 325/1/5
f 328/3/5 296/3/5 326/3/5
f 328/1/5 326/1/5 327/1/5
f 329/3/5 327/3/5 295/3/5
f 329/2/5 328/2/5 327/2/5
f 330/3/5 296/3/5 328/3/5
f 330/2/5 328/2/5 329/2/5
f 331/3/5 329/3/5 295/3/5
f 331/1/5 330/1/5 329/1/5
f 332/3/5 296/3/5 330/3/5
f 332/1/5 330/1/5 331/1/5
f 333/3/5 331/3/5 295/3/5
f 333/2/5 332/2/5 331/2/5
f 334/3/5 296/3/5 332/3/5
f 334/2/5 332/2/5 333/2/5
f 335/3/5 333/3/5 295/3/5
f 335/1/5 334/1/5 333/1/5
f 336/3/5 296/3/5 334/3/5
f 336/1/5 334/1/5 335/1/5
f 337/3/5 335/3/5 295/3/5
f 337/2/5 336/2/5 335/2/5
f 338/3/5 296/3/5 336/3/5
f 338/2/5 336/2/5 337/2/5
f 339/3/5 337/3/5 295/3/5
f 339/1/5 338/1/5 337/1/5
f 340/3/5 296/3/5 338/3/5
f 340/1/5 338/1/5 339/1/5
f 341/3/5 339/3/5 295/3/5
f 341/2/5 340/2/5 339/2/5
f 342/3/5 296/3/5 340/3/5
f 342/2/5 340/2/5 341/2/5
f 343/3/5 341/3/5 295/3/5
f 343/1/5 342/1/5 341/1/5
f 344/3/5 296/3/5 342/3/5
f 344/1/5 342/1/5 343/1/5
f 345/3/5 343/3/5 295/3/5
f 345/2/5 344/2/5 343/2/5
f 346/3/5 296/3/5 344/3/5
f 346/2/5 344/2/5 345/2/5
f 347/3/5 345/3/5 295/3/5
f 347/1/5 346/1/5 345/1/5
f 348/3/5 296/3/5 346/3/5
f 348/1/5 346/1/5 347/1/5
f 349/3/5 347/3/5 295/3/5
f 350/3/5 296/3/5 348/3/5
f 351/3/5 349/3/5 295/3/5
f 351/3/5 350/3/5 349/3/5
f 352/3/5 296/3/5 350/3/5
f 352/3/5 350/3/5 351/3/5
f 357/3/5 354/3/5 353/3/5
f 358/1/5 355/1/5 354/1/5
f 358/3/5 354/3/5 357/3/5
f 359/3/5 356/3/5 355/3/5
f 359/1/5 355/1/5 358/1/5
f 360/3/5 356/3/5 359/3/5
f 365/3/5 362/3/5 361/3/5
f 366/2/5 363/2/5 362/2/5
f 366/3/5 362/3/5 365/3/5
f 367/3/5 364/3/5 363/3/5
f 367/2/5 363/2/5 366/2/5
f 368/3/5 364/3/5 367/3/5
f 373/3/5 370/3/5 369/3/5
f 373/2/5 371/2/5 370/2/5
f 374/3/5 372/3/5 371/3/5
f 374/2/5 371/2/5 373/2/5
f 375/3/5 373/3/5 369/3/5
f 376/1/5 374/1/5 373/1/5
f 376/3/5 373/3/5 375/3/5
f 377/3/5 372/3/5 374/3/5
f 377/1/5 374/1/5 376/1/5
f 378/3/5 372/3/5 377/3/5
f 383/3/5 380/3/5 379/3/5
f 384/1/5 381/1/5 380/1/5
f 384/3/5 380/3/5 383/3/5
f 385/3/5 382/3/5 381/3/5
f 385/1/5 381/1/5 384/1/5
f 386/3/5 382/3/5 385/3/5
f 391/3/5 388/3/5 387/3/5
f 392/2/5 389/2/5 388/2/5
f 392/3/5 388/3/5 391/3/5
f 393/3/5 390/3/5 389/3/5
f 393/2/5 389/2/5 392/2/5
f 394/3/5 390/3/5 393/3/5
f 399/3/5 396/3/5 395/3/5
f 400/1/5 397/1/5 396/1/5
f 400/3/5 396/3/5 399/3/5
f 401/3/5 398/3/5 397/3/5
f 401/1/5 397/1/5 400/1/5
f 402/3/5 398/3/5 401/3/5
f 405/3/5 404/3/5 403/3/5
f 406/3/5 404/3/5 405/3/5
f 407/3/5 404/3/5 406/3/5
f 408/3/5 404/3/5 407/3/5
f 409/3/6 410/3/6 413/3/6
f 410/2/6 411/2/6 413/2/6
f 411/3/6 412/3/6 414/3/6
f 413/2/6 411/2/6 414/2/6
f 409/3/6 413/3/6 415/3/6
f 413/1/6 414/1/6 415/1/6
f 414/3/6 412/3/6 416/3/6
f 415/1/6 414/1/6 416/1/6
f 409/3/6 415/3/6 417/3/6
f 415/2/6 416/2/6 417/2/6
f 416/3/6 412/3/6 418/3/6
f 417/2/6 416/2/6 418/2/6
f 409/3/6 417/3/6 419/3/6
f 417/1/6 418/1/6 419/1/6
f 418/3/6 412/3/6 420/3/6
f 419/1/6 418/1/6 420/1/6
f 409/3/6 419/3/6 421/3/6
f 419/2/6 420/2/6 421/2/6
f 420/3/6 412/3/6 422/3/6
f 421/2/6 420/2/6 422/2/6
f 409/3/6 421/3/6 423/3/6
f 421/1/6 422/1/6 423/1/6
f 422/3/6 412/3/6 424/3/6
f 423/1/6 422/1/6 424/1/6
f 409/3/6 423/3/6 425/3/6
f 423/2/6 424/2/6 425/2/6
f 424/3/6 412/3/6 426/3/6
f 425/2/6 424/2/6 426/2/6
f 409/3/6 425/3/6 427/3/6
f 425/1/6 426/1/6 427/1/6
f 426/3/6 412/3/6 428/3/6
f 427/1/6 426/1/6 428/1/6
f 409/3/6 427/3/6 429/3/6
f 427/2/6 428/2/6 429/2/6
f 428/3/6 412/3/6 430/3/6
f 429/2/6 428/2/6 430/2/6
f 409/3/6 429/3/6 431/3/6
f 429/1/6 430/1/6 431/1/6
f 430/3/6 412/3/6 432/3/6
f 431/1/6 430/1/6 432/1/6
f 409/3/6 431/3/6 433/3/6
f 431/2/6 432/2/6 433/2/6
f 432/3/6 412/3/6 434/3/6
f 433/2/6 432/2/6 434/2/6
f 409/3/6 433/3/6 435/3/6
f 433/1/6 434/1/6 435/1/6
f 434/3/6 412/3/6 436/3/6
f 435/1/6 434/1/6 436/1/6
f 409/3/6 435/3/6 437/3/6
f 435/2/6 436/2/6 437/2/6
f 436/3/6 412/3/6 438/3/6
f 437/2/6 436/2/6 438/2/6
f 409/3/6 437/3/6 439/3/6
f 437/1/6 438/1/6 439/1/6
f 438/3/6 412/3/6 440/3/6
f 439/1/6 438/1/6 440/1/6
f 409/3/6 439/3/6 441/3/6
f 439/2/6 440/2/6 441/2/6
f 440/3/6 412/3/6 442/3/6
f 441/2/6 440/2/6 442/2/6
f 409/3/6 441/3/6 443/3/6
f 441/1/6 442/1/6 443/1/6
f 442/3/6 412/3/6 444/3/6
f 443/1/6 442/1/6 444/1/6
f 409/3/6 443/3/6 445/3/6
f 443/2/6 444/2/6 445/2/6
f 444/3/6 412/3/6 446/3/6
f 445/2/6 444/2/6 446/2/6
f 409/3/6 445/3/6 447/3/6
f 445/1/6 446/1/6 447/1/6
f 446/3/6 412/3/6 448/3/6
f 447/1/6 446/1/6 448/1/6
f 409/3/6 447/3/6 449/3/6
f 447/2/6 448/2/6 449/2/6
f 448/3/6 412/3/6 450/3/6
f 449/2/6 448/2/6 450/2/6
f 409/3/6 449/3/6 451/3/6
f 449/1/6 450/1/6 451/1/6
f 450/3/6 412/3/6 452/3/6
f 451/1/6 450/1/6 452/1/6
f 409/3/6 451/3/6 453/3/6
f 451/2/6 452/2/6 453/2/6
f 452/3/6 412/3/6 454/3/6
f 453/2/6 452/2/6 454/2/6
f 409/3/6 453/3/6 455/3/6
f 453/1/6 454/1/6 455/1/6
f 454/3/6 412/3/6 456/3/6
f 455/1/6 454/1/6 456/1/6
f 409/3/6 455/3/6 457/3/6
f 455/2/6 456/2/6 457/2/6
f 456/3/6 412/3/6 458/3/6
f 457/2/6 456/2/6 458/2/6
f 409/3/6 457/3/6 459/3/6
f 457/1/6 458/1/6 459/1/6
f 458/3/6 412/3/6 460/3/6
f 459/1/6 458/1/6 460/1/6
f 409/3/6 459/3/6 461/3/6
f 459/3/6 460/3/6 461/3/6
f 460/3/6 412/3/6 462/3/6
f 461/3/6 460/3/6 462/3/6
f 463/3/6 464/3/6 467/3/6
f 464/2/6 465/2/6 467/2/6
f 465/3/6 466/3/6 468/3/6
f 467/2/6 465/2/6 468/2/6
f 463/3/6 467/3/6 469/3/6
f 467/1/6 468/1/6 470/1/6
f 469/3/6 467/3/6 470/3/6
f 468/3/6 466/3/6 471/3/6
f 470/1/6 468/1/6 471/1/6
f 471/3/6 466/3/6 472/3/6
f 473/3/6 474/3/6 477/3/6
f 474/1/6 475/1/6 478/1/6
f 477/3/6 474/3/6 478/3/6
f 475/3/6 476/3/6 479/3/6
f 478/1/6 475/1/6 479/1/6
f 479/3/6 476/3/6 480/3/6
f 481/3/6 482/3/6 485/3/6
f 482/1/6 483/1/6 485/1/6
f 483/3/6 484/3/6 486/3/6
f 485/1/6 483/1/6 486/1/6
f 481/3/6 485/3/6 487/3/6
f 485/2/6 486/2/6 488/2/6
f 487/3/6 485/3/6 488/3/6
f 486/3/6 484/3/6 489/3/6
f 488/2/6 486/2/6 489/2/6
f 489/3/6 484/3/6 490/3/6
f 491/3/6 492/3/6 495/3/6
f 492/2/6 493/2/6 496/2/6
f 495/3/6 492/3/6 496/3/6
f 493/3/6 494/3/6 497/3/6
f 496/2/6 493/2/6 497/2/6
f 497/3/6 494/3/6 498/3/6
f 499/3/6 500/3/6 503/3/6
f 500/1/6 501/1/6 504/1/6
f 503/3/6 500/3/6 504/3/6
f 501/3/6 502/3/6 505/3/6
f 504/1/6 501/1/6 505/1/6
f 505/3/6 502/3/6 506/3/6
f 507/3/6 508/3/6 511/3/6
f 508/2/6 509/2/6 512/2/6
f 511/3/6 508/3/6 512/3/6
f 509/3/6 510/3/6 513/3/6
f 512/2/6 509/2/6 513/2/6
f 513/3/6 510/3/6 514/3/6
f 515/3/6 516/3/6 519/3/6
f 516/2/6 517/2/6 519/2/6
f 517/3/6 518/3/6 520/3/6
f 519/2/6 517/2/6 520/2/6
f 515/3/6 519/3/6 521/3/6
f 519/1/6 520/1/6 522/1/6
f 521/3/6 519/3/6 522/3/6
f 520/3/6 518/3/6 523/3/6
f 522/1/6 520/1/6 523/1/6
f 523/3/6 518/3/6 524/3/6
f 525/3/6 526/3/6 529/3/6
f 526/2/6 527/2/6 529/2/6
f 527/3/6 528/3/6 530/3/6
f 529/2/6 527/2/6 530/2/6
f 525/3/6 529/3/6 531/3/6
f 529/1/6 530/1/6 532/1/6
f 531/3/6 529/3/6 532/3/6
f 530/3/6 528/3/6 533/3/6
f 532/1/6 530/1/6 533/1/6
f 533/3/6 528/3/6 534/3/6
f 535/3/6 536/3/6 537/3/6
f 537/3/6 536/3/6 538/3/6
