# MagicaVoxel @ Ephtracy

# group
o 

# material
mtllib turtle.mtl
usemtl palette

# normals
vn -1 0 0
vn 1 0 0
vn 0 0 1
vn 0 0 -1
vn 0 -1 0
vn 0 1 0

# texcoords
vt 0.181641 0.5
vt 0.185547 0.5
vt 0.369141 0.5
vt 0.396484 0.5
vt 0.716797 0.5
vt 0.994141 0.5

# verts
v -0.3 0 0.3
v -0.3 0 0.2
v -0.3 0 -0.2
v -0.3 0 -0.3
v -0.3 0.1 0.3
v -0.3 0.1 0.2
v -0.3 0.1 -0.2
v -0.3 0.1 -0.3
v -0.2 0.1 0.2
v -0.2 0.1 0.1
v -0.2 0.1 0
v -0.2 0.1 -0.1
v -0.2 0.1 -0.2
v -0.2 0.1 -0.3
v -0.2 0.2 0.2
v -0.2 0.2 0.1
v -0.2 0.2 0
v -0.2 0.2 -0.1
v -0.2 0.2 -0.2
v -0.2 0.2 -0.3
v -0.2 0.3 0.2
v -0.2 0.3 0.1
v -0.2 0.3 0
v -0.2 0.3 -0.2
v -0.2 0.3 -0.3
v -0.2 0.4 0.2
v -0.2 0.4 0.1
v -0.2 0.4 0
v -0.2 0.4 -0.1
v -0.2 0.4 -0.2
v -0.2 0.4 -0.3
v -0.2 0.5 0.1
v -0.2 0.5 0
v -0.2 0.5 -0.1
v -0.2 0.5 -0.2
v -0.1 0.1 0.5
v -0.1 0.1 0.2
v -0.1 0.2 0.5
v -0.1 0.2 0.4
v -0.1 0.2 0.2
v -0.1 0.3 0.5
v -0.1 0.3 0.4
v -0.1 0.3 0.3
v -0.1 0.3 0.2
v -0.1 0.4 0.5
v -0.1 0.4 0.3
v -0.1 0.4 0.2
v -0.1 0.4 0.1
v -0.1 0.4 -0.2
v -0.1 0.4 -0.3
v -0.1 0.5 0.2
v -0.1 0.5 0.1
v -0.1 0.5 -0.2
v -0.1 0.5 -0.3
v 0 0.1 -0.3
v 0 0.1 -0.4
v 0 0.2 -0.3
v 0 0.2 -0.4
v 0.3 0 0.3
v 0.3 0 0.2
v 0.3 0 -0.2
v 0.3 0 -0.3
v 0.3 0.1 0.3
v 0.3 0.1 0.2
v 0.3 0.1 -0.2
v 0.3 0.1 -0.3
v -0.2 0 0.3
v -0.2 0 0.2
v -0.2 0 -0.2
v -0.2 0 -0.3
v -0.2 0.1 0.3
v -0.2 0.1 0.2
v -0.2 0.1 -0.2
v -0.2 0.1 -0.3
v 0.1 0.1 -0.3
v 0.1 0.1 -0.4
v 0.1 0.2 -0.3
v 0.1 0.2 -0.4
v 0.2 0.1 0.5
v 0.2 0.1 0.2
v 0.2 0.2 0.5
v 0.2 0.2 0.4
v 0.2 0.2 0.2
v 0.2 0.3 0.5
v 0.2 0.3 0.4
v 0.2 0.3 0.3
v 0.2 0.3 0.2
v 0.2 0.4 0.5
v 0.2 0.4 0.3
v 0.2 0.4 0.2
v 0.2 0.4 0.1
v 0.2 0.4 -0.2
v 0.2 0.4 -0.3
v 0.2 0.5 0.2
v 0.2 0.5 0.1
v 0.2 0.5 -0.2
v 0.2 0.5 -0.3
v 0.3 0.1 0.2
v 0.3 0.1 0.1
v 0.3 0.1 0
v 0.3 0.1 -0.1
v 0.3 0.1 -0.2
v 0.3 0.1 -0.3
v 0.3 0.2 0.2
v 0.3 0.2 0.1
v 0.3 0.2 0
v 0.3 0.2 -0.1
v 0.3 0.2 -0.2
v 0.3 0.2 -0.3
v 0.3 0.3 0.1
v 0.3 0.3 0
v 0.3 0.3 -0.1
v 0.3 0.3 -0.2
v 0.3 0.4 0.2
v 0.3 0.4 0.1
v 0.3 0.4 0
v 0.3 0.4 -0.1
v 0.3 0.4 -0.2
v 0.3 0.4 -0.3
v 0.3 0.5 0.1
v 0.3 0.5 0
v 0.3 0.5 -0.1
v 0.3 0.5 -0.2
v 0.4 0 0.3
v 0.4 0 0.2
v 0.4 0 -0.2
v 0.4 0 -0.3
v 0.4 0.1 0.3
v 0.4 0.1 0.2
v 0.4 0.1 -0.2
v 0.4 0.1 -0.3
v -0.1 0.1 0.5
v -0.1 0.2 0.5
v -0.1 0.3 0.5
v -0.1 0.4 0.5
v 0 0.2 0.5
v 0 0.3 0.5
v 0.1 0.2 0.5
v 0.1 0.3 0.5
v 0.2 0.1 0.5
v 0.2 0.2 0.5
v 0.2 0.3 0.5
v 0.2 0.4 0.5
v -0.3 0 0.3
v -0.3 0.1 0.3
v -0.2 0 0.3
v -0.2 0.1 0.3
v 0.3 0 0.3
v 0.3 0.1 0.3
v 0.4 0 0.3
v 0.4 0.1 0.3
v -0.2 0.1 0.2
v -0.2 0.2 0.2
v -0.2 0.3 0.2
v -0.2 0.4 0.2
v -0.1 0.1 0.2
v -0.1 0.2 0.2
v -0.1 0.3 0.2
v -0.1 0.4 0.2
v -0.1 0.5 0.2
v 0.1 0.4 0.2
v 0.1 0.5 0.2
v 0.2 0.1 0.2
v 0.2 0.2 0.2
v 0.2 0.3 0.2
v 0.2 0.4 0.2
v 0.2 0.5 0.2
v 0.3 0.1 0.2
v 0.3 0.2 0.2
v 0.3 0.4 0.2
v -0.2 0.4 0.1
v -0.2 0.5 0.1
v -0.1 0.4 0.1
v -0.1 0.5 0.1
v 0.2 0.4 0.1
v 0.2 0.5 0.1
v 0.3 0.4 0.1
v 0.3 0.5 0.1
v -0.3 0 -0.2
v -0.3 0.1 -0.2
v -0.2 0 -0.2
v -0.2 0.1 -0.2
v 0.3 0 -0.2
v 0.3 0.1 -0.2
v 0.4 0 -0.2
v 0.4 0.1 -0.2
v -0.1 0.3 0.3
v -0.1 0.4 0.3
v 0.2 0.3 0.3
v 0.2 0.4 0.3
v -0.3 0 0.2
v -0.3 0.1 0.2
v -0.2 0 0.2
v -0.2 0.1 0.2
v 0.3 0 0.2
v 0.3 0.1 0.2
v 0.4 0 0.2
v 0.4 0.1 0.2
v -0.2 0.4 -0.2
v -0.2 0.5 -0.2
v -0.1 0.4 -0.2
v -0.1 0.5 -0.2
v 0.2 0.4 -0.2
v 0.2 0.5 -0.2
v 0.3 0.4 -0.2
v 0.3 0.5 -0.2
v -0.3 0 -0.3
v -0.3 0.1 -0.3
v -0.2 0 -0.3
v -0.2 0.1 -0.3
v -0.2 0.2 -0.3
v -0.2 0.3 -0.3
v -0.2 0.4 -0.3
v -0.1 0.1 -0.3
v -0.1 0.2 -0.3
v -0.1 0.4 -0.3
v -0.1 0.5 -0.3
v 0 0.1 -0.3
v 0 0.2 -0.3
v 0 0.3 -0.3
v 0 0.5 -0.3
v 0.1 0.1 -0.3
v 0.1 0.2 -0.3
v 0.1 0.3 -0.3
v 0.1 0.5 -0.3
v 0.2 0.1 -0.3
v 0.2 0.2 -0.3
v 0.2 0.3 -0.3
v 0.2 0.4 -0.3
v 0.2 0.5 -0.3
v 0.3 0 -0.3
v 0.3 0.1 -0.3
v 0.3 0.2 -0.3
v 0.3 0.4 -0.3
v 0.4 0 -0.3
v 0.4 0.1 -0.3
v 0 0.1 -0.4
v 0 0.2 -0.4
v 0.1 0.1 -0.4
v 0.1 0.2 -0.4
v -0.3 0 0.3
v -0.2 0 0.3
v 0.3 0 0.3
v 0.4 0 0.3
v -0.3 0 0.2
v -0.2 0 0.2
v 0.3 0 0.2
v 0.4 0 0.2
v -0.3 0 -0.2
v -0.2 0 -0.2
v 0.3 0 -0.2
v 0.4 0 -0.2
v -0.3 0 -0.3
v -0.2 0 -0.3
v 0.3 0 -0.3
v 0.4 0 -0.3
v -0.1 0.1 0.5
v 0.2 0.1 0.5
v -0.2 0.1 0.2
v -0.1 0.1 0.2
v 0 0.1 0.2
v 0.1 0.1 0.2
v 0.2 0.1 0.2
v 0.3 0.1 0.2
v -0.2 0.1 0.1
v -0.1 0.1 0.1
v 0 0.1 0.1
v 0.1 0.1 0.1
v 0.2 0.1 0.1
v 0.3 0.1 0.1
v -0.2 0.1 0
v -0.1 0.1 0
v 0 0.1 0
v 0.1 0.1 0
v 0.2 0.1 0
v 0.3 0.1 0
v -0.2 0.1 -0.1
v -0.1 0.1 -0.1
v 0 0.1 -0.1
v 0.1 0.1 -0.1
v 0.2 0.1 -0.1
v 0.3 0.1 -0.1
v -0.2 0.1 -0.2
v -0.1 0.1 -0.2
v 0 0.1 -0.2
v 0.1 0.1 -0.2
v 0.2 0.1 -0.2
v 0.3 0.1 -0.2
v -0.2 0.1 -0.3
v -0.1 0.1 -0.3
v 0 0.1 -0.3
v 0.1 0.1 -0.3
v 0.2 0.1 -0.3
v 0.3 0.1 -0.3
v 0 0.1 -0.4
v 0.1 0.1 -0.4
v -0.3 0.1 0.3
v -0.2 0.1 0.3
v 0.3 0.1 0.3
v 0.4 0.1 0.3
v -0.3 0.1 0.2
v -0.2 0.1 0.2
v 0.3 0.1 0.2
v 0.4 0.1 0.2
v -0.3 0.1 -0.2
v -0.2 0.1 -0.2
v 0.3 0.1 -0.2
v 0.4 0.1 -0.2
v -0.3 0.1 -0.3
v -0.2 0.1 -0.3
v 0.3 0.1 -0.3
v 0.4 0.1 -0.3
v 0 0.2 -0.3
v 0.1 0.2 -0.3
v 0 0.2 -0.4
v 0.1 0.2 -0.4
v -0.1 0.3 0.3
v 0.2 0.3 0.3
v -0.1 0.3 0.2
v 0.2 0.3 0.2
v -0.1 0.4 0.5
v 0.2 0.4 0.5
v -0.1 0.4 0.3
v 0.2 0.4 0.3
v -0.2 0.4 0.2
v -0.1 0.4 0.2
v 0.2 0.4 0.2
v 0.3 0.4 0.2
v -0.2 0.4 0.1
v -0.1 0.4 0.1
v 0.2 0.4 0.1
v 0.3 0.4 0.1
v -0.2 0.4 -0.2
v -0.1 0.4 -0.2
v 0.2 0.4 -0.2
v 0.3 0.4 -0.2
v -0.2 0.4 -0.3
v -0.1 0.4 -0.3
v 0.2 0.4 -0.3
v 0.3 0.4 -0.3
v -0.1 0.5 0.2
v 0.1 0.5 0.2
v 0.2 0.5 0.2
v -0.2 0.5 0.1
v -0.1 0.5 0.1
v 0 0.5 0.1
v 0.1 0.5 0.1
v 0.2 0.5 0.1
v 0.3 0.5 0.1
v -0.2 0.5 0
v -0.1 0.5 0
v 0 0.5 0
v 0.2 0.5 0
v 0.3 0.5 0
v -0.2 0.5 -0.1
v -0.1 0.5 -0.1
v 0.1 0.5 -0.1
v 0.3 0.5 -0.1
v -0.2 0.5 -0.2
v -0.1 0.5 -0.2
v 0 0.5 -0.2
v 0.2 0.5 -0.2
v 0.3 0.5 -0.2
v -0.1 0.5 -0.3
v 0 0.5 -0.3
v 0.1 0.5 -0.3
v 0.2 0.5 -0.3

# faces
f 5/5/1 2/5/1 1/5/1
f 6/5/1 2/5/1 5/5/1
f 7/5/1 4/5/1 3/5/1
f 8/5/1 4/5/1 7/5/1
f 15/2/1 10/2/1 9/2/1
f 16/1/1 11/1/1 10/1/1
f 16/2/1 10/2/1 15/2/1
f 17/2/1 12/2/1 11/2/1
f 17/1/1 11/1/1 16/1/1
f 18/1/1 13/1/1 12/1/1
f 18/2/1 12/2/1 17/2/1
f 19/2/1 14/2/1 13/2/1
f 19/1/1 13/1/1 18/1/1
f 20/2/1 14/2/1 19/2/1
f 21/3/1 16/3/1 15/3/1
f 21/3/1 17/3/1 16/3/1
f 22/3/1 17/3/1 21/3/1
f 23/4/1 18/4/1 17/4/1
f 23/3/1 17/3/1 22/3/1
f 23/4/1 19/4/1 18/4/1
f 24/3/1 20/3/1 19/3/1
f 24/4/1 19/4/1 23/4/1
f 25/3/1 20/3/1 24/3/1
f 26/4/1 22/4/1 21/4/1
f 27/3/1 23/3/1 22/3/1
f 27/4/1 22/4/1 26/4/1
f 27/3/1 24/3/1 23/3/1
f 28/3/1 24/3/1 27/3/1
f 29/3/1 24/3/1 28/3/1
f 30/4/1 25/4/1 24/4/1
f 30/3/1 24/3/1 29/3/1
f 31/4/1 25/4/1 30/4/1
f 32/3/1 28/3/1 27/3/1
f 33/4/1 29/4/1 28/4/1
f 33/3/1 28/3/1 32/3/1
f 34/3/1 30/3/1 29/3/1
f 34/4/1 29/4/1 33/4/1
f 35/3/1 30/3/1 34/3/1
f 38/5/1 37/5/1 36/5/1
f 39/5/1 37/5/1 38/5/1
f 40/5/1 37/5/1 39/5/1
f 41/6/1 39/6/1 38/6/1
f 42/5/1 40/5/1 39/5/1
f 42/6/1 39/6/1 41/6/1
f 43/5/1 40/5/1 42/5/1
f 44/5/1 40/5/1 43/5/1
f 45/5/1 42/5/1 41/5/1
f 45/5/1 43/5/1 42/5/1
f 46/5/1 43/5/1 45/5/1
f 51/3/1 48/3/1 47/3/1
f 52/3/1 48/3/1 51/3/1
f 53/4/1 50/4/1 49/4/1
f 54/4/1 50/4/1 53/4/1
f 57/5/1 56/5/1 55/5/1
f 58/5/1 56/5/1 57/5/1
f 63/5/1 60/5/1 59/5/1
f 64/5/1 60/5/1 63/5/1
f 65/5/1 62/5/1 61/5/1
f 66/5/1 62/5/1 65/5/1
f 67/5/2 68/5/2 71/5/2
f 71/5/2 68/5/2 72/5/2
f 69/5/2 70/5/2 73/5/2
f 73/5/2 70/5/2 74/5/2
f 75/5/2 76/5/2 77/5/2
f 77/5/2 76/5/2 78/5/2
f 79/5/2 80/5/2 81/5/2
f 81/5/2 80/5/2 82/5/2
f 82/5/2 80/5/2 83/5/2
f 81/6/2 82/6/2 84/6/2
f 82/5/2 83/5/2 85/5/2
f 84/6/2 82/6/2 85/6/2
f 85/5/2 83/5/2 86/5/2
f 86/5/2 83/5/2 87/5/2
f 84/5/2 85/5/2 88/5/2
f 85/5/2 86/5/2 88/5/2
f 88/5/2 86/5/2 89/5/2
f 90/4/2 91/4/2 94/4/2
f 94/4/2 91/4/2 95/4/2
f 92/4/2 93/4/2 96/4/2
f 96/4/2 93/4/2 97/4/2
f 98/2/2 99/2/2 104/2/2
f 99/1/2 100/1/2 105/1/2
f 104/2/2 99/2/2 105/2/2
f 100/2/2 101/2/2 106/2/2
f 105/1/2 100/1/2 106/1/2
f 101/1/2 102/1/2 107/1/2
f 106/2/2 101/2/2 107/2/2
f 102/2/2 103/2/2 108/2/2
f 107/1/2 102/1/2 108/1/2
f 108/2/2 103/2/2 109/2/2
f 104/3/2 105/3/2 110/3/2
f 105/4/2 106/4/2 110/4/2
f 106/3/2 107/3/2 111/3/2
f 110/4/2 106/4/2 111/4/2
f 107/4/2 108/4/2 112/4/2
f 111/3/2 107/3/2 112/3/2
f 108/3/2 109/3/2 113/3/2
f 112/4/2 108/4/2 113/4/2
f 104/3/2 110/3/2 114/3/2
f 111/3/2 112/3/2 114/3/2
f 112/3/2 113/3/2 114/3/2
f 110/3/2 111/3/2 114/3/2
f 114/3/2 113/3/2 115/3/2
f 115/3/2 113/3/2 116/3/2
f 116/3/2 113/3/2 117/3/2
f 113/3/2 109/3/2 118/3/2
f 117/3/2 113/3/2 118/3/2
f 118/3/2 109/3/2 119/3/2
f 115/4/2 116/4/2 120/4/2
f 116/3/2 117/3/2 121/3/2
f 120/4/2 116/4/2 121/4/2
f 117/4/2 118/4/2 122/4/2
f 121/3/2 117/3/2 122/3/2
f 122/4/2 118/4/2 123/4/2
f 124/5/2 125/5/2 128/5/2
f 128/5/2 125/5/2 129/5/2
f 126/5/2 127/5/2 130/5/2
f 130/5/2 127/5/2 131/5/2
f 136/5/3 133/5/3 132/5/3
f 136/6/3 134/6/3 133/6/3
f 137/5/3 135/5/3 134/5/3
f 137/6/3 134/6/3 136/6/3
f 138/5/3 136/5/3 132/5/3
f 138/5/3 137/5/3 136/5/3
f 139/5/3 135/5/3 137/5/3
f 139/5/3 137/5/3 138/5/3
f 140/5/3 138/5/3 132/5/3
f 141/6/3 139/6/3 138/6/3
f 141/5/3 138/5/3 140/5/3
f 142/5/3 135/5/3 139/5/3
f 142/6/3 139/6/3 141/6/3
f 143/5/3 135/5/3 142/5/3
f 146/5/3 145/5/3 144/5/3
f 147/5/3 145/5/3 146/5/3
f 150/5/3 149/5/3 148/5/3
f 151/5/3 149/5/3 150/5/3
f 156/2/3 153/2/3 152/2/3
f 157/3/3 154/3/3 153/3/3
f 157/2/3 153/2/3 156/2/3
f 158/4/3 155/4/3 154/4/3
f 158/3/3 154/3/3 157/3/3
f 159/4/3 155/4/3 158/4/3
f 161/3/3 160/3/3 159/3/3
f 161/3/3 159/3/3 158/3/3
f 162/3/3 160/3/3 161/3/3
f 165/3/3 161/3/3 158/3/3
f 166/4/3 162/4/3 161/4/3
f 166/3/3 161/3/3 165/3/3
f 167/4/3 162/4/3 166/4/3
f 168/2/3 164/2/3 163/2/3
f 169/3/3 165/3/3 164/3/3
f 169/2/3 164/2/3 168/2/3
f 169/3/3 166/3/3 165/3/3
f 170/3/3 166/3/3 169/3/3
f 173/3/3 172/3/3 171/3/3
f 174/3/3 172/3/3 173/3/3
f 177/4/3 176/4/3 175/4/3
f 178/4/3 176/4/3 177/4/3
f 181/5/3 180/5/3 179/5/3
f 182/5/3 180/5/3 181/5/3
f 185/5/3 184/5/3 183/5/3
f 186/5/3 184/5/3 185/5/3
f 187/5/4 188/5/4 189/5/4
f 189/5/4 188/5/4 190/5/4
f 191/5/4 192/5/4 193/5/4
f 193/5/4 192/5/4 194/5/4
f 195/5/4 196/5/4 197/5/4
f 197/5/4 196/5/4 198/5/4
f 199/3/4 200/3/4 201/3/4
f 201/3/4 200/3/4 202/3/4
f 203/4/4 204/4/4 205/4/4
f 205/4/4 204/4/4 206/4/4
f 207/5/4 208/5/4 209/5/4
f 209/5/4 208/5/4 210/5/4
f 210/2/4 211/2/4 214/2/4
f 211/3/4 212/3/4 215/3/4
f 214/2/4 211/2/4 215/2/4
f 212/4/4 213/4/4 216/4/4
f 214/1/4 215/1/4 218/1/4
f 215/3/4 212/3/4 219/3/4
f 218/1/4 215/1/4 219/1/4
f 216/4/4 217/4/4 220/4/4
f 219/3/4 212/3/4 220/3/4
f 212/4/4 216/4/4 220/4/4
f 220/4/4 217/4/4 221/4/4
f 219/3/4 220/3/4 223/3/4
f 220/3/4 221/3/4 223/3/4
f 223/3/4 221/3/4 224/3/4
f 224/3/4 221/3/4 225/3/4
f 222/1/4 223/1/4 226/1/4
f 223/3/4 224/3/4 227/3/4
f 226/1/4 223/1/4 227/1/4
f 224/4/4 225/4/4 228/4/4
f 227/3/4 224/3/4 228/3/4
f 228/4/4 225/4/4 229/4/4
f 229/4/4 225/4/4 230/4/4
f 226/2/4 227/2/4 232/2/4
f 227/3/4 228/3/4 233/3/4
f 228/3/4 229/3/4 233/3/4
f 232/2/4 227/2/4 233/2/4
f 233/3/4 229/3/4 234/3/4
f 231/5/4 232/5/4 235/5/4
f 235/5/4 232/5/4 236/5/4
f 237/5/4 238/5/4 239/5/4
f 239/5/4 238/5/4 240/5/4
f 245/5/5 242/5/5 241/5/5
f 246/5/5 242/5/5 245/5/5
f 247/5/5 244/5/5 243/5/5
f 248/5/5 244/5/5 247/5/5
f 253/5/5 250/5/5 249/5/5
f 254/5/5 250/5/5 253/5/5
f 255/5/5 252/5/5 251/5/5
f 256/5/5 252/5/5 255/5/5
f 260/5/5 258/5/5 257/5/5
f 261/5/5 258/5/5 260/5/5
f 262/5/5 258/5/5 261/5/5
f 263/5/5 258/5/5 262/5/5
f 265/2/5 260/2/5 259/2/5
f 266/1/5 261/1/5 260/1/5
f 266/2/5 260/2/5 265/2/5
f 267/2/5 262/2/5 261/2/5
f 267/1/5 261/1/5 266/1/5
f 268/1/5 263/1/5 262/1/5
f 268/2/5 262/2/5 267/2/5
f 269/2/5 264/2/5 263/2/5
f 269/1/5 263/1/5 268/1/5
f 270/2/5 264/2/5 269/2/5
f 271/1/5 266/1/5 265/1/5
f 272/2/5 267/2/5 266/2/5
f 272/1/5 266/1/5 271/1/5
f 273/1/5 268/1/5 267/1/5
f 273/2/5 267/2/5 272/2/5
f 274/2/5 269/2/5 268/2/5
f 274/1/5 268/1/5 273/1/5
f 275/1/5 270/1/5 269/1/5
f 275/2/5 269/2/5 274/2/5
f 276/1/5 270/1/5 275/1/5
f 277/2/5 272/2/5 271/2/5
f 278/1/5 273/1/5 272/1/5
f 278/2/5 272/2/5 277/2/5
f 279/2/5 274/2/5 273/2/5
f 279/1/5 273/1/5 278/1/5
f 280/1/5 275/1/5 274/1/5
f 280/2/5 274/2/5 279/2/5
f 281/2/5 276/2/5 275/2/5
f 281/1/5 275/1/5 280/1/5
f 282/2/5 276/2/5 281/2/5
f 283/1/5 278/1/5 277/1/5
f 284/2/5 279/2/5 278/2/5
f 284/1/5 278/1/5 283/1/5
f 285/1/5 280/1/5 279/1/5
f 285/2/5 279/2/5 284/2/5
f 286/2/5 281/2/5 280/2/5
f 286/1/5 280/1/5 285/1/5
f 287/1/5 282/1/5 281/1/5
f 287/2/5 281/2/5 286/2/5
f 288/1/5 282/1/5 287/1/5
f 289/2/5 284/2/5 283/2/5
f 290/1/5 285/1/5 284/1/5
f 290/2/5 284/2/5 289/2/5
f 291/2/5 286/2/5 285/2/5
f 291/1/5 285/1/5 290/1/5
f 292/1/5 287/1/5 286/1/5
f 292/2/5 286/2/5 291/2/5
f 293/2/5 288/2/5 287/2/5
f 293/1/5 287/1/5 292/1/5
f 294/2/5 288/2/5 293/2/5
f 295/5/5 292/5/5 291/5/5
f 296/5/5 292/5/5 295/5/5
f 297/5/6 298/5/6 301/5/6
f 301/5/6 298/5/6 302/5/6
f 299/5/6 300/5/6 303/5/6
f 303/5/6 300/5/6 304/5/6
f 305/5/6 306/5/6 309/5/6
f 309/5/6 306/5/6 310/5/6
f 307/5/6 308/5/6 311/5/6
f 311/5/6 308/5/6 312/5/6
f 313/5/6 314/5/6 315/5/6
f 315/5/6 314/5/6 316/5/6
f 317/5/6 318/5/6 319/5/6
f 319/5/6 318/5/6 320/5/6
f 321/5/6 322/5/6 323/5/6
f 323/5/6 322/5/6 324/5/6
f 325/4/6 326/4/6 329/4/6
f 329/4/6 326/4/6 330/4/6
f 327/3/6 328/3/6 331/3/6
f 331/3/6 328/3/6 332/3/6
f 333/4/6 334/4/6 337/4/6
f 337/4/6 334/4/6 338/4/6
f 335/3/6 336/3/6 339/3/6
f 339/3/6 336/3/6 340/3/6
f 341/3/6 342/3/6 345/3/6
f 345/3/6 342/3/6 346/3/6
f 342/4/6 343/4/6 347/4/6
f 346/3/6 342/3/6 347/3/6
f 347/4/6 343/4/6 348/4/6
f 344/3/6 345/3/6 350/3/6
f 345/4/6 346/4/6 351/4/6
f 350/3/6 345/3/6 351/3/6
f 346/3/6 347/3/6 352/3/6
f 351/4/6 346/4/6 352/4/6
f 347/3/6 348/3/6 352/3/6
f 348/4/6 349/4/6 353/4/6
f 352/3/6 348/3/6 353/3/6
f 353/4/6 349/4/6 354/4/6
f 350/4/6 351/4/6 355/4/6
f 351/3/6 352/3/6 356/3/6
f 355/4/6 351/4/6 356/4/6
f 352/3/6 353/3/6 356/3/6
f 353/3/6 354/3/6 356/3/6
f 356/3/6 354/3/6 357/3/6
f 357/3/6 354/3/6 358/3/6
f 355/3/6 356/3/6 359/3/6
f 356/3/6 357/3/6 359/3/6
f 359/3/6 357/3/6 360/3/6
f 360/3/6 357/3/6 361/3/6
f 357/4/6 358/4/6 362/4/6
f 362/4/6 358/4/6 363/4/6
f 360/4/6 361/4/6 364/4/6
f 361/3/6 357/3/6 365/3/6
f 364/4/6 361/4/6 365/4/6
f 357/4/6 362/4/6 366/4/6
f 365/3/6 357/3/6 366/3/6
f 366/4/6 362/4/6 367/4/6
